<svg xmlns:svg="http://www.w3.org/2000/svg" xmlns="http://www.w3.org/2000/svg" width="400" height="300" version="1"><style>.s0{fill:#bbb;}</style><rect width="280" height="380" x="-290" y="10" transform="matrix(0,-1,1,0,0,0)" fill="#d4d4d4"/><path d="M214 227C214 239 204 249 192 249 179 249 169 239 169 227 169 215 179 205 192 205 204 205 214 215 214 227zM193 49L196 49C211 49 223 53 233 61 243 68 249 79 249 92 249 101 247 109 243 115 239 121 233 128 224 137 214 145 208 152 206 158 203 163 202 169 202 176 202 177 202 181 203 187L177 187 174 180C173 176 172 173 172 170 172 165 173 159 174 154 176 149 178 144 182 140 185 135 191 128 200 118 210 109 214 101 214 94 214 82 206 76 189 76 181 76 172 80 163 88L149 62C160 53 175 49 193 49z" fill="#fff"/><rect width="25" height="50" x="-300" y="0" transform="matrix(0,-1,1,0,0,0)" fill="#bbb"/><rect y="250" x="0" height="50" width="25" fill="#bbb"/><rect y="0" x="0" height="50" width="25" transform="matrix(0,1,1,0,0,0)" fill="#bbb"/><rect transform="scale(1,-1)" width="25" height="50" x="0" y="-50" fill="#bbb"/><rect y="-400" x="-300" height="50" width="25" transform="matrix(0,-1,-1,0,0,0)" fill="#bbb"/><rect transform="scale(-1,1)" width="25" height="50" x="-400" y="250" fill="#bbb"/><rect transform="matrix(0,1,-1,0,0,0)" width="25" height="50" x="0" y="-400" fill="#bbb"/><rect y="-50" x="-400" height="50" width="25" transform="scale(-1,-1)" fill="#bbb"/></svg>