<svg xmlns:svg="http://www.w3.org/2000/svg" xmlns="http://www.w3.org/2000/svg" width="43" height="43" viewBox="0 0 151 151" version="1"><g transform="translate(-2.9289718,-4.1041222)"><g transform="matrix(0.28225806,0,0,0.28225806,0.726529,3.3126134)"><path d="" fill="#000"/><g transform="translate(-551.42857,-648.57143)"><path d="m805 1185c-82-6-157-50-202-119-3-5-7-11-8-13-7-11-16-31-22-49-10-31-15-67-12-101 1-21 3-32 7-49 9-36 27-73 51-102 13-17 36-37 55-51 34-24 75-40 120-46 12-2 55-2 67 0 50 7 95 25 134 56 12 9 34 31 43 43 19 25 35 55 44 82 20 61 17 129-7 188-13 33-40 71-66 94-57 51-126 74-202 69zm51-49c37-5 74-21 102-43 8-7 29-27 36-36 3-4 7-8 8-9 1-1 4-5 7-10 32-49 43-110 31-165-19-82-83-147-164-166-20-5-28-6-51-6-23 0-35 2-56 7-78 21-139 85-157 165-9 39-6 82 8 120 7 18 23 48 30 55 1 1 4 5 7 8 6 8 28 29 36 36 31 24 72 40 114 44 11 1 35 0 47-1zm-69-82c-34-4-56-22-63-51-3-12-4-36-4-93l0-51-3-2c-1-1-4-3-6-3-6-1-8-3-8-8l0-4 36 0 36 0 0 3c0 5-2 7-9 8-7 1-10 3-11 6-1 2-1 23-1 62 0 50 1 60 2 67 4 21 12 31 32 37 8 2 10 3 23 3 12 0 16 0 22-2 19-5 29-14 33-31 3-11 3-24 3-93 0-72 0-77 4-85 3-5 7-9 12-12 4-2 6-3 18-3 7 0 21-1 29-1 15 0 16 0 17 2 1 1 1 3 1 5 0 5-2 6-12 7-5 1-10 2-11 2-5 2-4 2-4 89 0 86 0 91-4 102-8 24-28 40-54 44-23 3-60 4-80 2z" fill="#fdfdfd"/><path d="m807 1185c-58-4-111-26-156-64-10-9-28-27-30-31-1-1-4-5-7-10-13-17-26-39-34-57-38-91-23-196 38-272 7-9 25-28 35-36 37-31 81-52 128-60 74-12 148 6 208 51 11 8 32 28 41 39 64 76 80 182 43 274-8 20-21 41-34 59-3 4-7 9-7 10-2 4-28 29-38 37-44 35-93 54-150 58-15 1-21 1-37 0zm51-49c35-5 68-19 96-39 17-12 45-42 57-60 18-27 30-63 34-97 2-15 1-41-2-55-8-46-27-84-59-117-26-27-55-45-89-56-51-17-108-14-157 9-24 11-43 24-63 43-31 30-52 68-61 109-7 31-7 65 1 97 5 21 17 49 29 68 12 18 38 46 55 59 31 23 71 38 113 42 9 1 38 0 48-2zm-70-82c-20-2-35-9-46-20-8-8-12-14-16-26-5-14-5-20-5-86 0-38 0-61-1-63-1-3-4-5-10-6-4-1-8-5-7-8l0-3 36 0c38 0 37 0 37 4 0 4-3 7-8 7-2 0-6 1-7 2-6 2-6-1-6 61 0 66 1 76 7 89 7 15 22 22 47 23 30 1 50-9 57-27 4-11 4-14 5-94 1-77 1-77 3-84 3-8 9-15 15-18 4-2 7-2 19-3 21-1 39-1 41 0 2 1 3 8 1 10-1 1-5 2-10 2-5 1-10 2-10 2-4 2-4 1-4 87 0 88 0 92-5 106-9 24-29 40-55 43-25 3-57 4-77 1z" fill="#fdfdfc"/><path d="m809 1185c-45-3-88-17-126-41-46-29-85-76-105-128-29-74-23-160 17-229 76-134 250-175 379-90 28 18 56 46 74 74 48 72 58 164 26 245-16 42-48 85-83 112-44 35-93 53-150 57-15 1-17 1-33 0zm49-49c35-6 65-18 95-38 10-7 34-30 42-40 3-4 6-7 7-8 4-4 13-19 20-32 15-30 22-57 23-91 2-47-11-89-37-129-34-50-86-84-148-94-13-2-54-2-67 0-82 14-147 69-174 147-8 23-11 42-11 70 0 18 0 23 2 34 4 24 11 43 21 65 6 11 17 29 19 31 1 1 4 4 6 8 8 10 32 33 41 39 17 12 32 20 50 27 20 8 34 11 61 14 7 1 39 0 48-2zm-70-82c-7-1-14-2-20-4-28-9-43-28-47-60-1-5-1-28-1-69 0-46 0-62-1-64-1-2-2-3-5-3-2-1-5-2-7-3-4-2-6-6-4-8 1-1 4-2 35-2 25 0 35 0 36 1 2 2 2 5-1 8-1 1-4 2-7 3-7 1-10 2-11 5-1 2-1 18-1 59 0 60 1 71 5 84 6 19 26 29 57 28 26-1 41-9 48-24 5-11 5-12 6-97 1-70 1-79 2-83 4-11 12-19 21-21 2-1 15-1 29-2 28-1 29-1 29 5 0 2-1 4-1 5-1 1-4 2-8 2-10 2-14 3-15 6-1 2-1 20-1 83 0 96 0 98-9 114-7 14-16 23-29 29-9 4-17 6-31 8-17 2-55 2-67 0z" fill="#fdfcfa"/><path d="m794 1184c-49-6-96-26-134-56-10-8-31-28-36-35-2-3-6-7-8-10-7-9-22-33-28-43-25-48-34-107-25-162 11-68 48-129 103-171 58-44 132-62 204-50 85 14 156 67 194 143 17 34 25 64 28 104 3 45-8 97-29 138-5 10-20 33-26 41-2 3-6 7-8 10-5 7-26 27-36 35-39 31-86 51-136 56-15 2-48 2-63 0zm65-48c44-7 83-26 114-55 41-39 63-81 71-136 2-16 1-46-1-63-13-72-60-133-126-163-20-9-44-16-66-18-11-1-38-1-49 0-75 8-139 54-173 122-10 21-17 42-20 66-2 11-2 49 0 60 4 29 13 54 27 78 11 19 21 31 41 51 14 14 23 21 40 31 23 14 54 25 81 28 5 1 10 1 11 1 6 1 42 0 51-2zm-69-82c-33-4-53-18-63-43-5-14-5-14-6-87 0-37-1-67-1-67-1-1-6-3-9-3-2 0-4-2-6-3-3-3-3-4-1-7 1-2 2-2 36-2l35 0 1 2c2 5-3 9-14 10-2 0-4 1-5 2-2 2-2 3-2 64 0 68 1 72 6 83 3 6 9 13 15 16 10 6 30 9 44 7 29-3 43-13 48-35 1-6 2-19 2-85 1-78 1-78 3-85 3-8 9-16 16-19 5-2 7-2 31-3 24-1 26-1 28 1 2 1 2 2 2 5 0 4-2 6-13 7-7 1-9 2-11 4l-2 2 0 80c0 51 0 83-1 89-2 19-8 31-21 43-13 13-25 18-48 20-17 2-53 2-65 0z" fill="#fdfbf8"/><path d="m796 1184c-51-7-97-26-137-57-9-7-33-31-37-36-1-2-5-7-9-12-18-23-30-47-39-73-26-76-16-158 26-227 17-28 43-56 70-75 67-48 151-63 231-40 69 20 128 69 162 134 39 74 39 163 2 239-3 6-6 13-8 15-9 14-17 26-22 32-11 14-14 17-24 27-41 40-90 64-148 73-13 2-55 3-68 1zm66-48c35-6 66-19 94-39 17-12 43-40 56-59 13-20 25-49 30-73 4-19 5-29 4-51-1-20-2-31-6-49-13-52-47-99-94-129-59-38-135-45-201-19-53 21-97 64-119 117-12 28-18 56-18 87 0 35 7 65 22 96 9 18 15 28 28 43 11 13 30 32 40 39 30 22 68 37 106 41 13 1 46 0 59-2zm-62-81c-1 0-6-1-11-1-29-3-52-18-61-42-6-14-6-14-6-87 0-58-1-67-2-68-1-1-4-2-7-3-3-1-6-2-7-3-2-2-2-6 0-8 1-1 66-1 69 0 2 1 2 6 0 8-1 1-5 2-9 3-11 2-10-5-10 68 0 60 0 64 2 72 4 20 12 27 33 33 16 4 38 3 53-3 11-4 18-11 22-21 4-11 5-21 5-91 0-36 0-70 1-75 1-12 4-19 10-25 8-7 10-8 39-9 28-1 30-1 31 4 1 6-2 7-14 9-5 1-10 2-11 3 0 0 0 39-1 87-1 78-1 87-2 94-5 21-18 38-36 46-10 5-22 7-42 9-12 1-41 1-45 0z" fill="#fdfaf6"/><path d="m803 1185c-2 0-8-1-14-2-46-6-92-26-129-56-14-11-32-29-42-43-32-42-47-78-55-127-2-14-3-52-1-68 14-119 104-214 222-233 58-9 120 1 170 29 24 13 41 26 60 46 15 15 23 24 33 39 27 40 42 85 45 134 2 26-1 51-7 77-9 37-22 65-47 99-35 48-90 84-150 98-20 5-32 6-58 7-13 0-26 0-27 0zm57-49c36-6 72-21 100-43 10-8 27-25 38-37 23-28 37-59 45-98 2-12 2-14 3-38 0-29-1-35-7-57-6-22-15-43-28-63-8-13-15-21-27-34-19-19-37-31-59-43-48-24-102-29-154-16-66 17-122 67-148 130-10 26-15 47-15 77-1 29 2 51 11 76 13 38 32 66 69 99 14 13 43 29 64 37 12 4 33 9 44 11 5 1 9 1 11 1 6 1 44 0 53-2zm-69-83c-30-3-50-16-61-38-8-17-9-23-9-97l0-61-2-2c-1-1-4-2-6-3-5-1-9-4-9-7 0-1 1-3 1-4 2-2 67-2 69 0 2 2 1 6-1 8-1 1-5 2-9 3-11 2-10-5-10 64 0 61 0 70 4 83 5 17 18 25 43 28 11 1 21 1 33-2 15-4 24-10 29-20 6-12 6-20 7-102 0-79 0-78 6-87 1-2 4-6 6-7 7-6 10-6 37-7 13 0 26-1 27 0 4 1 6 6 3 10-1 1-4 2-10 3-9 1-13 3-14 5-1 1-1 32-1 81 0 48 0 83-1 89-2 19-8 33-21 45-12 12-26 18-49 20-18 2-50 2-63 0z" fill="#fdfaf5"/><path d="m796 1184c-57-7-107-30-149-68-12-10-19-19-30-33-30-40-46-77-54-126-2-15-2-60 0-75 8-48 26-91 55-128 9-11 31-33 42-42 105-83 254-77 351 16 45 43 73 98 80 161 2 14 2 44 0 58-5 43-18 81-40 115-16 24-29 40-46 55-20 18-38 30-62 42-25 12-50 20-77 25-17 3-54 3-70 1zm57-47c38-5 74-19 103-41 15-11 40-37 52-54 14-20 26-47 32-72 5-19 5-25 5-52 0-21 0-26-2-36-13-71-56-129-120-160-32-15-61-22-97-22-49 0-93 15-132 44-11 8-31 27-39 38-19 24-33 52-41 81-6 22-7 28-7 57 0 24 0 27 3 38 6 29 15 54 30 77 11 18 38 47 56 61 29 22 64 36 102 41 13 2 40 2 54 0zm-62-83c-14-2-21-3-33-9-16-8-26-20-32-36-5-14-5-14-5-85l-1-66-2-2c-1-1-4-2-6-2-5-1-9-4-9-7 0-1 1-3 1-4 2-2 67-2 69 0 2 2 1 6-1 8-1 1-5 2-9 3-11 2-10-5-10 68 0 56 0 64 2 71 5 23 17 32 46 36 7 1 12 1 18 0 29-3 42-13 46-34 2-11 4-50 3-91-1-47 0-74 3-82 2-6 7-11 12-15 7-4 12-5 38-5 23 0 25 0 26 1 1 1 1 3 1 4 0 4-3 6-12 7-9 1-13 3-14 5 0 1-1 37-1 81 0 48 0 83-1 88-4 35-25 58-58 63-22 3-53 4-74 2z" fill="#fdf9f4"/><path d="m797 1184c-80-9-151-53-194-121-2-4-6-9-8-12-9-14-21-44-27-66-6-24-8-36-8-65 0-28 1-36 6-59 10-46 34-90 67-125 21-22 47-41 74-55 85-42 186-36 265 16 18 12 27 19 42 34 23 23 40 47 54 77 23 50 30 109 19 165-5 27-18 61-30 79-2 3-5 8-7 12-4 6-7 11-20 27-6 9-24 26-36 36-41 33-87 52-139 58-15 2-43 2-58 0zm57-47c37-5 70-18 100-39 17-12 46-42 58-60 41-63 46-145 14-212-27-58-78-100-139-117-51-15-109-9-156 14-67 33-113 98-121 172-1 13-1 41 1 54 4 31 16 64 33 90 10 16 36 44 52 56 29 22 66 38 105 43 13 2 42 2 55 0zm-62-83c-42-4-66-27-70-67-1-5-1-36-1-69 0-68 1-62-9-65-3-1-6-2-7-3-2-3-2-6 0-7 2-1 65-1 68 0 2 1 2 3 1 6-1 2-5 4-10 5-5 1-8 2-9 4 0 1-1 28-1 61 0 56 0 61 2 71 4 22 12 31 32 36 12 3 25 4 37 2 29-4 40-15 44-42 1-5 1-35 2-83 1-74 1-76 3-80 3-8 8-13 15-16l6-3 24 0c13 0 26 0 27 0 2 1 3 1 4 3 1 5-2 7-14 9-7 1-9 2-11 3-2 2-2 7-2 80 0 82 0 93-4 106-6 20-22 38-41 44-17 6-57 8-87 5z" fill="#fdf8f2"/><path d="m805 1185c-48-5-87-19-126-44-33-22-55-45-83-88-4-6-14-27-18-38-18-45-22-100-12-149 16-79 69-148 141-184 122-61 268-21 342 92 21 32 34 68 41 108 2 15 2 59 0 74-6 35-19 73-33 96-1 2-4 7-6 10-8 13-26 35-36 45-40 40-92 66-149 75-9 1-18 2-35 2-12 0-24 0-26 0zm60-49c36-7 66-20 93-41 10-7 26-23 35-34 3-4 7-8 8-9 4-4 15-22 20-32 21-40 28-88 22-133-8-50-35-99-73-132-55-47-127-65-197-47-62 15-115 58-144 117-4 8-8 18-10 24-25 72-11 152 35 208 10 12 32 34 41 41 27 20 57 33 89 39 17 3 22 4 45 3 20 0 24-1 35-3zm-73-82c-39-4-61-22-69-56-2-8-2-12-2-73 0-36-1-66-1-67 0-2-3-3-10-5-6-2-9-8-5-10 1-1 14-1 34-1 20 0 33 0 34 1 2 1 2 3 1 6-1 2-5 4-10 5-6 1-9 2-10 5 0 1 0 30 0 65 0 56 1 64 2 70 3 14 9 23 20 28 19 9 51 9 71 1 9-4 16-13 19-23 3-11 4-20 4-96 1-85 0-80 7-89 3-3 5-6 10-8l6-3 26 0c24 0 27 0 28 1 1 1 2 3 2 4 0 4-3 5-13 7-7 1-10 2-11 4-2 2-2 7-2 80 0 79 0 92-3 103-6 24-25 43-49 49-16 4-57 6-79 3z" fill="#fdf8f0"/><path d="m805 1185c-65-6-122-33-167-77-11-11-24-27-36-45-22-34-36-72-41-115-2-17-1-50 1-68 13-86 67-160 144-198 27-13 50-21 81-26 15-2 60-2 75 0 31 5 55 12 81 26 64 32 113 88 135 156 8 26 12 46 12 75 1 30-2 51-9 78-6 22-18 51-27 63-1 1-4 7-8 11-11 16-23 31-33 42-41 41-92 67-150 76-12 2-49 3-60 2zm56-49c22-4 47-12 66-22 26-14 47-30 69-56 40-47 58-113 47-175-7-39-24-77-50-107-35-41-84-67-139-75-11-2-42-2-53 0-68 9-125 46-160 103-44 72-43 164 2 235 4 6 8 11 9 13 1 1 5 6 8 9 24 29 54 50 87 63 13 5 36 11 48 13 5 1 9 1 11 1 6 1 48 0 56-2zm-69-83c-43-4-67-26-71-68-1-5-1-36-1-69 0-52 0-60-1-61-1-1-4-2-7-3-3-1-6-2-7-3-2-2-2-6 0-7 2-1 65-1 68 0 2 1 2 3 1 6-1 2-5 4-10 5-6 1-9 2-10 5 0 1 0 30 0 65 0 56 1 64 2 70 5 22 15 30 41 34 16 3 40 0 52-7 6-4 13-11 16-18 5-12 5-18 6-99 1-71 1-76 2-81 4-9 10-16 19-19 3-1 9-2 30-2 23 0 26 0 27 1 2 2 2 5 0 7-2 2-4 2-11 3-5 1-9 2-11 3l-2 2-1 86c-1 82-1 86-2 94-6 25-21 43-45 51-6 2-19 4-36 5-17 1-32 1-48 0z" fill="#fdf7f0"/><path d="m801 1184c-28-3-60-11-85-23-47-22-84-54-115-101-9-14-13-21-19-34-14-33-21-63-22-100-1-22 1-38 5-59 19-95 88-172 181-201 12-4 27-7 43-10 15-2 59-2 74 0 73 11 134 48 177 105 27 37 44 78 51 125 2 12 2 55 0 66-5 32-14 61-26 86-6 11-20 34-27 43-2 3-6 7-8 10-5 7-30 31-41 39-48 37-105 56-164 55-8 0-18 0-23-1zm43-46c38-2 81-18 113-43 17-13 41-38 53-56 7-11 19-34 23-47 19-54 16-111-7-163-27-61-83-108-148-123-97-23-195 20-244 106-30 54-35 120-15 179 5 14 16 36 23 48 12 18 36 44 53 56 27 21 59 34 93 40 12 2 33 4 41 3 3 0 10-1 15-1zm-51-84c-15-1-24-4-35-9-17-8-29-23-34-43-3-13-4-25-4-86 0-58 0-59-2-61-1-1-2-2-3-2-3 0-8-2-10-4-2-3-2-6 0-7 2-1 65-1 68 0 2 1 2 4 1 7-1 2-4 3-12 4-4 1-6 2-6 3-1 1-1 23-1 62 0 57 0 61 2 71 4 23 12 31 34 37 19 5 44 3 59-5 4-2 11-8 13-12 7-12 8-25 8-108 0-46 0-69 1-72 2-11 9-20 18-23 5-2 7-2 31-2l26 0 2 2c3 5 0 8-12 10-9 1-12 3-13 6 0 1-1 40-1 86 0 68-1 85-2 90-6 30-26 49-55 55-8 1-39 4-50 4-5 0-15-1-23-1z" fill="#fdf6ee"/><path d="m803 1184c-34-3-65-12-95-27-44-22-78-53-106-96-16-24-26-48-34-77-6-23-7-36-7-65 0-28 1-40 7-63 19-76 70-140 140-175 52-26 114-34 171-22 95 19 175 92 202 185 8 28 11 52 10 81-1 37-8 67-22 100-18 41-51 82-87 108-16 12-39 24-57 32-39 16-83 22-124 19zm49-47c36-4 74-19 103-40 18-13 42-38 54-57 8-12 19-34 24-47 16-47 16-96 1-142-18-56-59-102-111-128-22-11-43-17-67-21-15-2-46-2-62 0-130 19-214 145-182 272 5 21 17 48 28 65 12 18 36 44 54 57 44 33 100 48 156 41zm-58-84c-21-2-35-7-47-16-13-10-19-21-24-41-2-8-2-12-2-73 0-35-1-65-1-66-1-2-2-3-9-5-7-2-10-8-6-10 2-1 64-1 67 0 2 1 2 2 2 3 0 4-4 6-11 8-4 1-8 2-8 3-1 1-1 8-2 48 0 49 1 79 3 90 4 19 13 28 33 33 12 3 34 3 45 0 16-4 25-11 30-22 5-11 5-17 6-100 1-76 1-76 3-81 4-10 9-15 18-18 3-1 9-2 30-2l26 0 2 2c3 5 0 8-12 10-5 1-9 2-10 3l-2 2-1 85c-1 92-1 92-6 105-4 11-14 25-24 31-9 6-21 10-34 12-25 3-43 3-66 1z" fill="#fdf6ec"/><path d="m804 1184c-50-4-100-24-142-56-10-7-36-33-39-39-1-2-5-7-8-11-14-18-29-46-37-67-43-116 0-246 104-314 44-29 93-44 146-44 123 0 230 84 259 205 7 31 9 70 4 101-3 19-9 42-16 59-16 40-49 83-82 109-54 42-120 62-187 56zm52-47c31-4 65-17 92-35 12-8 32-26 41-36 12-14 16-19 21-27 17-27 29-58 33-92 2-13 2-44-1-58-4-24-10-45-21-67C970 714 838 669 730 722 639 767 591 866 612 966c5 24 17 51 30 72 12 18 37 45 55 59 33 24 74 39 117 42 9 1 30 0 42-2zm-60-83c-19-2-29-4-42-12-19-11-29-29-32-57-1-6-1-33-1-68 0-45 0-59-1-60-1-1-3-2-6-3-9-2-13-9-7-11 3-1 62-1 66 0 1 0 2 2 3 3 1 4-3 7-11 8-4 1-8 2-8 3-1 1-2 6-2 51 0 80 1 95 13 107 8 9 23 14 42 15 26 1 47-7 55-22 6-12 6-16 7-102l1-77 2-6c2-4 4-7 8-11 8-8 10-8 41-9l26-1 2 3c1 2 1 3 1 5-1 3-3 4-13 5-6 1-8 2-10 3l-2 2 0 88c0 86-1 88-3 95-3 12-9 22-18 31-7 7-9 9-16 12-13 6-21 8-49 10-17 1-23 1-43-1z" fill="#fdf4ea"/><path d="m804 1184c-60-5-118-31-162-73-16-16-26-29-45-57-6-9-16-31-21-44-29-79-18-168 29-238 36-55 93-95 156-110 64-16 131-8 189 22 128 67 179 225 114 354-6 12-19 32-29 45-3 3-6 8-8 10-4 6-25 26-35 33-53 42-121 63-188 58zm38-46c39-3 75-16 106-37 29-19 59-54 75-85 16-32 23-61 23-98 0-36-7-65-22-97-32-65-92-109-165-121-14-2-49-2-64 0-47 7-87 27-121 60-35 34-58 78-65 127-2 15-2 47 0 61 6 40 22 78 45 104 12 14 15 18 27 29 43 40 103 60 162 56zm-36-84c-26-2-36-4-50-11-5-3-10-6-15-11-12-12-18-26-20-49-1-6-1-36-1-68 0-56 0-57-2-59-1-1-4-2-6-2-5-1-10-5-9-8 0-2 1-3 4-3 2 0 17 0 34 0 27 0 31 0 32 2 1 2 1 3-1 6-2 2-4 3-9 4-4 1-8 2-8 3-1 1-2 6-2 55 0 54 0 70 3 84 4 18 13 27 32 32 11 3 35 3 46 0 21-6 30-15 34-35 1-7 2-18 2-85 0-59 1-78 2-81 3-10 11-18 19-21 4-1 10-2 30-2l25-1 2 2c1 2 1 3 1 5-1 3-3 4-10 5-8 1-12 2-14 4-2 2-2 5-2 89 0 86-1 87-3 95-6 20-20 37-38 44-10 4-19 6-41 7-18 1-25 1-36 1z" fill="#fdf4e8"/><path d="m806 1184c-51-4-101-23-142-55-36-27-68-71-85-113-20-52-24-109-10-163 9-34 24-67 47-96 10-13 37-40 50-50 38-28 78-45 125-52 17-3 56-2 74 0 57 9 106 33 147 73 15 15 26 28 36 43 52 78 59 177 18 262-11 22-32 52-49 70-55 57-132 86-211 80zm38-46c41-4 78-17 110-40 12-9 31-27 43-42 47-56 61-135 37-206-15-47-46-87-88-115-12-8-36-20-51-25-82-27-170-5-229 56-32 33-52 74-59 121-2 15-2 47 0 62 4 28 13 54 27 78 7 13 10 17 22 31 18 21 40 40 61 52 37 21 83 31 125 27zm-44-85c-17-1-29-4-41-10-7-4-10-6-16-12-9-9-14-17-17-30-3-14-4-29-4-90l0-56-2-1c-1-1-4-2-6-2-5-1-9-5-8-7 1-4 4-4 35-4 31 0 35 0 35 4 0 1-1 3-2 4-2 2-3 3-8 4-4 1-8 2-9 3l-2 2 0 55c0 55 0 69 3 83 4 18 13 26 32 32 6 2 10 2 23 2 13 0 17 0 23-2 16-4 24-10 29-21 6-12 6-14 6-99 1-80 1-80 4-87 2-5 8-10 13-13 5-3 17-4 43-4 17 0 18 0 18 5 0 4-2 5-11 7-11 2-13 3-14 7-1 2-1 33-1 85 0 85 0 90-4 102-7 20-22 35-42 42-9 3-15 4-37 5-21 1-22 1-41 0z" fill="#fcf3e6"/><path d="m806 1184c-75-6-144-43-189-102-10-14-23-33-28-44-29-58-36-125-20-187 16-62 56-118 110-153 89-59 205-59 294 0 26 17 50 41 68 66 54 74 65 172 30 257-8 20-19 38-36 61-30 41-74 72-123 89-34 12-71 17-107 14zm52-47c35-5 70-19 98-40 16-12 44-41 55-59 34-53 44-120 26-182-21-72-80-130-152-149-22-6-33-7-59-7-20 0-25 0-35 2-46 8-85 28-117 59-57 55-80 135-61 213 6 22 16 46 28 64 13 19 38 46 57 60 31 23 72 38 112 41 9 1 38 0 47-2zm-68-84c-27-3-49-16-59-36-9-17-10-32-9-108 0-59 1-54-8-56-6-2-10-6-8-8 1-1 4-2 35-2 29 0 34 0 35 1 1 1 1 2 0 4-1 3-5 5-12 5-2 0-5 1-7 2l-2 2 0 56c0 37 0 59 1 66 3 30 10 40 32 47 8 2 10 3 25 3 18 0 26-1 36-7 6-3 13-10 16-16 6-13 7-23 7-102 0-45 0-71 1-74 2-11 8-19 16-24 4-2 6-3 18-3 19-1 40-1 42 0 1 1 2 2 2 4 0 4-3 6-13 7-9 1-11 2-12 6-1 2-1 31-1 84 0 86 0 91-4 102-8 24-28 40-53 44-16 3-57 4-76 2z" fill="#fcf2e4"/><path d="m807 1184c-59-4-114-28-159-69-25-23-51-58-64-89-44-99-23-215 53-292 72-74 180-100 277-66 47 16 89 46 120 84 17 21 34 52 43 77 19 53 20 113 4 167-6 19-16 43-24 54-2 3-5 8-8 13-3 5-8 12-11 16-3 4-6 8-7 10-3 4-17 19-26 27-46 41-100 63-160 68-15 1-21 1-37 0zm51-47c31-4 63-17 90-34 21-14 49-42 64-65 16-24 27-55 32-85 2-15 3-42 1-57-6-50-27-94-61-129-13-13-22-21-37-31-26-17-55-28-88-34-14-2-53-2-67 0-38 7-70 20-101 43-11 8-30 27-39 39-39 50-55 114-43 177 5 27 16 55 31 77 14 22 42 51 63 64 31 21 64 32 102 36 11 1 39 0 52-1zm-69-84c-33-4-55-21-63-49-4-13-4-21-4-85 0-70 1-63-9-66-6-2-10-6-8-8 1-1 4-2 35-2 29 0 34 0 35 1 1 1 1 2 0 4-1 3-5 5-12 6-3 0-5 1-7 3l-2 2 0 56c0 56 1 68 3 81 4 18 13 27 33 32 6 1 10 2 23 2 15 0 17 0 24-3 19-6 27-15 31-34 1-7 2-18 2-86l1-78 2-6c3-7 8-14 15-17 5-2 7-3 19-3 20-1 38-1 40 0 1 1 2 2 2 4 0 3 0 3-3 5-2 1-5 2-8 2-8 1-12 2-13 5-1 2-1 21-2 89 0 86-1 87-3 94-4 15-12 27-23 36-11 8-24 13-41 15-16 2-57 2-68 0z" fill="#fcf1e2"/><path d="m809 1184c-60-4-114-27-160-67-26-23-54-61-67-93-28-67-29-141-1-207 8-20 24-46 38-64 8-10 30-32 41-41 50-40 113-61 175-58 58 2 110 21 156 57 11 8 34 31 43 42 57 72 74 167 44 253-9 26-21 49-39 72-4 5-8 10-9 12-4 5-26 28-37 36-45 35-94 54-151 58-15 1-17 1-33 0zm49-47c36-5 71-20 99-41 10-7 30-27 40-39 25-30 40-64 46-105 3-16 2-51-1-67-3-15-7-32-12-44-30-78-101-131-183-140-15-2-44-1-59 2-37 7-72 22-102 46-11 9-29 28-37 39-30 41-45 88-44 138 1 34 8 61 22 90 12 24 25 41 47 63 18 18 32 28 54 38 25 12 50 19 80 22 8 1 39 0 49-2zm-69-84c-31-3-52-18-61-44-5-15-6-20-6-89 0-60 0-63-2-64-1-1-3-2-5-3-7-1-12-6-10-9 1-1 6-1 35-1 30 0 34 0 35 1 1 1 1 2 0 4-1 3-5 4-12 5-2 0-5 2-6 3l-2 2 0 63c0 61 0 63 2 72 4 20 12 28 32 33 10 3 31 4 41 1 11-2 17-4 23-9 9-6 14-14 17-29 1-3 1-33 2-83 1-69 1-78 2-82 4-11 11-18 19-21 3-1 12-2 29-2 27-1 28 0 28 4 0 5-2 6-12 7-9 1-12 2-13 6-1 3-1 17-1 84 0 88 0 92-5 105-7 19-22 33-40 39-16 5-61 8-89 5z" fill="#fcf0e0"/><path d="m809 1184c-76-5-147-43-192-102-15-20-26-37-33-54-30-66-31-141-5-208 14-35 35-66 62-92 67-64 162-89 252-66 35 9 70 27 99 50 10 8 33 30 41 41 62 77 76 181 36 272-10 24-30 54-50 76-30 33-75 61-120 74-19 6-37 9-59 10-15 1-16 1-32 0zm37-46c41-4 79-19 111-43 10-8 29-27 40-39 15-18 25-36 34-57 17-43 19-91 7-137-17-63-63-118-124-144-43-19-91-23-138-13-78 17-142 78-163 156-6 22-7 33-7 58 0 23 1 33 5 49 8 33 22 63 43 89 10 12 30 32 40 39 43 32 99 48 152 43zm-58-86c-35-4-58-23-64-55-2-10-3-21-3-82 0-55 0-58-2-60-1-1-3-2-5-3-7-1-12-6-10-9 1-1 6-1 35-1 33 0 34 0 35 2 1 2 1 2 0 4-1 2-4 3-12 5-2 0-5 2-6 3l-2 2 0 57c0 33 0 61 1 65 4 30 12 40 38 46 8 2 11 2 23 1 31-1 47-10 52-31 3-12 3-24 3-92 0-43 0-71 1-74 2-12 8-21 17-25 5-3 6-3 30-3 26-1 30-1 30 3 1 5-2 7-12 9-3 0-7 1-8 2-6 2-6-2-6 87 0 52 0 83-1 89-2 17-9 31-20 42-9 9-20 15-34 17-20 4-58 5-80 2z" fill="#fcf0df"/><path d="m809 1184c-55-3-109-25-152-61-20-16-37-36-54-63-10-15-12-20-18-32-28-62-31-131-9-195 13-39 34-72 64-102 15-15 24-22 41-34 79-52 180-59 265-16 24 12 46 27 65 46 80 77 103 194 59 297-4 10-11 23-14 28-1 1-4 6-7 11-3 5-9 13-13 18-39 51-99 87-164 98-12 2-41 5-47 4-1 0-7 0-14-1zm38-46c40-4 78-19 110-42 16-12 42-39 54-57 7-10 19-35 23-49 8-25 11-42 11-71 0-24-1-34-6-53-19-74-73-132-146-155-44-14-92-14-136 0-88 29-149 109-152 202-2 54 15 104 48 145 10 12 30 31 40 39 31 23 71 39 109 43 12 1 31 1 43 0zm-58-86c-36-4-58-23-65-55-2-10-2-21-3-84 0-54 0-56-2-58-1-1-3-2-5-3-7-1-12-6-10-9 1-1 6-1 35-1 33 0 34 0 35 2 1 2 0 5-3 6-1 0-5 1-8 2-11 2-10-4-10 63 0 33 0 61 1 65 3 29 11 39 33 45 6 2 9 2 24 2 14 0 17 0 24-2 20-5 29-15 33-34 1-6 2-20 2-85 1-69 1-78 2-82 4-11 11-18 20-21 3-1 13-2 29-2 22-1 25-1 26 1 2 2 2 5 0 7-1 1-5 2-10 3-10 1-12 2-13 6-1 1-1 34-1 83 0 52 0 83-1 89-3 24-16 44-36 53-15 7-26 9-65 9-15 0-26 0-33-1z" fill="#fceedd"/><path d="m798 1183c-57-7-106-29-149-67-16-14-31-32-46-56-48-73-55-168-18-250 15-34 39-67 67-91 42-36 90-57 145-64 12-2 48-2 60 0 77 10 142 48 187 111 62 87 65 206 8 294-16 24-29 41-45 55-36 32-76 53-121 63-21 5-28 5-55 6-14 0-28 0-32-1zm61-46c30-5 58-15 84-31 18-11 36-27 53-47 4-4 7-9 8-9 2-2 8-12 14-21 13-22 22-48 27-75 2-12 3-43 1-56-8-75-53-141-121-175-20-10-47-18-69-21-15-2-42-2-57 0-62 8-119 43-154 96-18 27-29 54-34 86-2 11-2 15-2 36 0 21 0 25 2 36 7 39 22 73 45 101 9 11 32 34 41 41 29 22 66 36 101 41 5 1 10 1 11 1 6 1 42 0 51-2zm-70-84c-39-4-62-26-66-64-1-5-1-33-1-69 0-70 1-64-9-67-7-2-9-5-7-8 1-2 3-2 35-2 31 0 34 0 35 2 1 2-1 6-4 7-1 0-4 1-7 1-4 1-6 2-8 3l-2 2 0 58c0 61 1 70 4 83 3 10 9 17 18 22 11 6 30 9 45 7 23-3 37-10 44-24 5-11 5-12 6-97 1-84 1-82 6-92 1-2 4-6 6-7 7-6 9-6 36-7 23-1 26-1 28 1 3 2 3 5 1 7-1 1-5 2-10 3-7 1-12 3-13 5 0 0 0 39-1 87-1 98 0 94-8 109-9 19-24 31-44 36-15 4-62 5-82 3z" fill="#fcecd9"/><path d="m802 1184c-39-5-69-13-99-30-41-22-74-52-102-95-39-61-50-141-30-213 13-43 36-82 68-114 46-46 104-72 171-77 49-3 101 8 144 32 104 57 157 175 132 290-8 39-24 70-51 107-40 53-101 89-170 99-9 1-54 3-62 2zm60-47c46-8 84-27 116-59 29-29 46-56 58-92 11-36 13-77 5-115-12-54-46-103-93-134-40-27-86-39-135-36-80 5-152 53-186 126-10 21-17 48-20 71-2 15-1 44 2 59 7 38 23 73 46 101 11 13 29 30 39 38 31 23 69 38 108 43 13 1 46 0 59-2zm-71-84c-17-2-33-7-45-16-13-10-22-27-24-49-1-5-1-34-1-69 0-44 0-61-1-63-1-2-3-3-7-4-5-2-7-2-8-5-1-2-1-3 0-4 1-1 4-2 35-1l34 0 0 2c0 4-3 6-9 7-7 1-11 3-11 5 0 1 0 30 0 65 0 59 0 63 2 71 1 5 3 11 4 14 3 6 10 12 16 15 12 6 30 8 45 7 23-3 37-10 43-23 6-12 6-20 6-97 0-67 0-80 3-87 2-5 6-10 10-13 7-5 12-5 37-6 20-1 24 0 26 1 3 2 3 5 0 7-1 1-5 2-10 3-9 1-13 3-14 6-1 1-1 33-1 82 0 47 0 83-1 88-2 21-11 38-26 49-11 9-24 13-43 15-15 1-51 2-62 1z" fill="#fcecd6"/><path d="m795 1183c-48-6-97-26-134-56-20-16-44-42-57-64-2-4-6-9-8-12-11-17-22-46-28-72-28-116 28-238 134-294 56-30 123-39 186-24 71 17 132 63 169 127 40 70 46 157 15 232-16 39-47 81-81 107-38 30-86 50-135 56-15 2-46 2-61 0zm54-45c40-4 79-20 111-44 15-12 39-37 49-52 20-29 32-63 36-99 1-13 1-46-1-58-9-54-35-100-77-135-25-21-62-39-95-46-18-4-27-4-45-4-35 0-66 7-97 22-61 30-104 85-119 151-5 21-6 49-4 71 4 35 17 70 36 98 11 16 35 41 50 53 31 24 70 39 109 44 11 1 36 1 47 0zm-59-86c-40-4-63-26-67-65 0-4-1-35-1-68 0-43 0-61-1-63-1-2-4-4-9-5-4-1-7-4-7-7l0-2 32 0c18 0 33 0 34 0 1 0 2 1 2 3 0 4-3 6-13 8-2 0-4 1-5 2-2 2-2 4-2 61 0 62 0 70 4 83 5 18 18 26 45 29 10 1 23 0 34-3 23-6 31-18 33-47 0-5 1-40 1-78 0-69 0-70 2-76 3-9 7-14 15-18l6-3 25-1c22-1 26-1 27 1 3 2 3 5 0 7-1 1-5 2-9 3-4 1-9 1-10 2-6 2-5-2-5 85 0 51 0 83-1 89-3 29-20 51-45 59-17 5-59 8-87 5z" fill="#fcead4"/><path d="m803 1184c-2 0-8-1-14-2-45-6-87-24-125-53-28-21-59-59-75-91-12-24-21-51-25-80-2-14-3-52-1-68 12-101 79-186 174-220 64-23 136-20 198 8 47 21 89 58 116 102 45 72 52 162 20 240-5 12-12 26-16 32-2 3-5 7-7 10-2 3-8 12-14 20-12 16-32 36-47 48-36 28-77 45-121 52-10 2-17 2-37 2-13 0-26 0-27 0zm57-47c43-7 82-25 112-53 39-36 61-74 71-125 2-12 2-14 3-38 0-29-1-35-7-57-16-62-59-113-116-141-32-15-61-22-97-22-35 0-64 7-95 21-66 32-110 91-123 164-2 12-3 45-1 58 4 36 16 70 36 99 13 19 40 47 58 59 32 22 62 33 105 38 8 1 45 0 54-2zm-69-84c-33-4-54-19-63-45-5-13-5-14-5-85 0-37-1-67-1-67-1-1-6-3-9-3-2 0-4-1-5-3-2-2-3-6-1-7 2-1 64-1 66 0 2 1 2 5-1 7-1 1-4 2-6 2-6 1-10 2-11 4-1 2-1 117 0 126 3 19 6 27 14 34 16 15 56 17 80 6 10-5 17-14 20-25 3-12 3-23 3-94 0-71 0-73 2-79 3-10 8-15 17-19 4-2 7-2 30-3 28-1 30-1 30 4 0 3-3 5-13 6-7 1-9 2-11 4l-2 2 0 80c0 49 0 83-1 89-3 31-22 54-50 61-15 4-60 6-81 3z" fill="#fcead2"/><path d="m796 1183c-48-6-91-23-130-52-12-9-36-32-42-39-2-3-5-7-8-10-6-8-21-31-26-41-13-24-22-53-27-83-2-13-2-59 0-72 7-48 25-90 52-126 60-78 157-117 253-101 56 9 105 35 145 74 43 43 69 97 76 158 2 16 1 54-1 68-6 36-18 70-34 96-15 24-28 40-44 55-42 41-96 67-155 74-15 2-45 2-60 0zm68-46c42-7 80-26 109-53 12-11 15-15 27-28 19-22 33-52 41-83 4-17 5-26 6-46 1-30-2-50-11-76-27-80-96-137-180-149-15-2-42-2-57 0-89 12-162 76-184 162-6 23-7 28-7 57 0 24 0 27 3 38 10 51 31 89 71 125 30 27 69 46 109 53 18 3 17 3 40 2 17 0 24-1 33-2zm-70-84c-34-3-57-19-66-45-5-14-5-14-5-83 0-35-1-66-1-67-1-3-3-5-9-6-6-1-10-8-6-9 2-1 64-1 66 0 2 1 2 5-1 7-1 1-4 2-7 3-7 1-10 3-11 5 0 1 0 30 0 65 0 60 0 63 2 71 2 11 6 17 12 23 15 14 54 17 79 6 7-3 14-10 17-17 1-3 3-8 4-12 2-11 3-47 3-107 0-49 0-55 1-61 3-10 8-16 17-20 5-2 6-2 30-3 27-1 29 0 30 4 0 4-2 5-13 7-7 1-9 2-11 4l-2 2 0 80c0 52 0 83-1 89-2 19-8 31-20 44-17 16-31 20-80 21-11 0-24 0-29-1z" fill="#fce8d0"/><path d="m796 1183c-61-7-116-34-159-78-11-11-19-21-32-41-15-23-25-43-33-69-8-27-11-51-11-83 1-23 2-32 6-52 17-77 69-143 140-179 38-19 76-28 119-28 27 0 49 3 74 10 83 24 150 88 177 170 4 13 9 33 11 47 2 15 2 61 0 75-5 31-14 59-27 83-5 10-20 33-26 41-2 3-6 7-8 10-5 7-26 27-36 35-39 31-86 51-136 56-15 2-45 2-59 0zm54-45c37-4 74-18 105-40 18-13 43-39 56-58 17-26 30-60 34-92 2-13 2-41 1-54-10-83-68-155-147-183-57-20-118-16-172 12-51 25-91 72-110 127-8 25-11 46-11 76 1 25 3 41 11 63 6 18 18 42 28 55 13 17 38 43 52 53 31 22 68 37 104 41 11 1 38 1 49 0zm-59-86c-41-4-64-26-68-66-1-5-1-34-1-68 0-33 0-60-1-62-1-2-4-4-9-5-6-1-10-8-6-9 2-1 64-1 66 0 2 1 2 5-1 7-1 1-5 2-7 3-6 1-10 3-11 5 0 1 0 30 0 65 0 60 0 63 2 71 1 5 3 11 5 13 8 14 25 22 51 22 14 0 23-2 34-6 8-3 18-12 21-20 5-12 5-20 5-96 0-39 1-73 1-75 1-12 8-22 18-26 5-2 6-2 30-3 27-1 29 0 30 4 0 4-2 5-13 7-14 2-13-9-13 91 0 78-1 87-2 93-6 27-24 45-49 52-15 4-59 6-81 3z" fill="#fce8ce"/><path d="m804 1184c-58-6-108-27-150-63-20-17-36-36-53-62-21-33-34-72-39-113-1-14-1-50 1-63 9-59 35-110 76-151 59-59 143-86 226-74 85 13 159 67 198 145 12 24 20 50 25 79 2 14 3 51 1 67-5 40-17 77-37 107-23 36-48 63-80 84-37 24-78 39-122 44-9 1-39 1-47 0zm46-45c38-4 76-19 106-41 18-13 44-41 56-58 42-65 47-149 12-218-7-14-12-21-21-34-58-78-158-108-249-77-79 27-137 99-147 183-1 13-1 41 1 54 4 32 17 65 34 92 13 19 38 46 56 59 10 7 24 15 35 21 19 9 46 17 67 19 11 1 38 1 49 0zm-58-86c-22-2-36-8-49-21-9-9-13-17-17-29-3-12-4-23-4-85 0-33 0-60-1-61-1-2-4-4-9-5-6-1-10-8-6-9 1 0 16-1 34-1 24 0 32 0 33 1 3 3-1 8-9 9-6 1-10 3-10 5 0 1-1 28-1 61 0 56 0 61 2 71 2 14 5 21 12 27 10 9 24 13 44 13 31 0 50-10 55-29 4-12 4-20 5-98 1-72 1-76 2-80 2-6 9-13 14-16 6-3 12-4 36-4 25 0 27 0 25 5-1 3-3 4-13 6-14 2-13-9-13 91 0 78-1 87-2 93-4 15-10 26-21 36-12 11-26 16-48 18-19 2-47 2-60 0z" fill="#fce7cc"/><path d="m805 1184c-44-4-81-17-116-38-35-22-63-49-88-88-35-55-48-126-34-192 19-92 87-169 176-198 112-37 234 4 302 100 24 34 38 71 45 114 3 17 2 60 0 77-4 22-10 44-18 64-16 37-47 79-79 104-37 29-79 48-126 55-9 1-18 2-34 2-12 0-24 0-26 0zm60-48c35-7 65-20 92-39 11-8 32-28 42-41 10-12 17-24 25-40 11-22 18-46 21-71 2-13 1-40 0-54-11-85-69-154-150-181-22-7-43-11-69-11-25 0-46 3-67 10-78 25-135 90-149 170-10 55 1 113 31 159 12 18 38 46 56 59 25 19 56 32 88 38 17 3 22 4 45 3 20 0 24-1 35-3zm-73-84c-23-2-37-9-50-21-11-12-17-24-19-45-1-5-1-33-1-69 0-51 0-60-1-62-1-1-3-2-6-3-8-2-11-6-8-9 2-2 66-2 67 0 3 3-1 8-9 9-6 1-10 3-11 5 0 1 0 31 0 65 0 56 1 64 2 70 5 20 14 29 35 34 17 4 41 2 55-4 11-5 18-13 21-24 3-12 4-20 4-96l1-76 3-6c3-7 9-13 15-16 4-2 6-2 31-2 27 0 29 0 29 4 0 4-2 5-12 7-15 3-13-9-14 92 0 78-1 87-2 93-3 15-10 27-21 36-7 7-20 13-30 16-16 3-57 5-78 3z" fill="#fce5c9"/><path d="m805 1184c-55-5-103-25-145-58-10-8-27-24-33-31-13-16-18-23-31-43-8-12-19-37-24-56-8-28-11-51-10-81 1-32 5-56 15-84 9-25 26-55 42-75 8-11 30-32 40-40 45-36 97-56 154-59 94-5 183 40 236 119 29 43 43 92 43 145 0 38-7 73-22 108-12 27-33 58-56 81-41 40-91 65-147 74-12 2-49 3-60 2zm56-47c34-6 66-19 93-39 17-13 44-41 57-60 8-12 19-35 24-49 8-23 11-45 11-70 0-59-22-112-63-154-35-36-79-58-131-65-5-1-17-1-27-1-25 0-46 3-69 11-81 27-138 96-150 181-2 14-2 41 0 54 3 26 10 49 21 71 9 18 15 28 28 43 10 12 29 30 38 37 15 11 34 22 53 29 13 5 36 11 48 13 5 1 9 1 11 1 6 1 48 0 56-2zm-68-84c-23-2-38-8-51-21-11-12-17-25-19-46-1-5-1-36-1-68 0-51 0-60-1-62-1-1-3-2-6-3-8-2-11-6-8-9 2-2 66-2 67 0 3 3 0 7-9 9-11 2-10-5-10 70 0 57 1 65 2 71 5 22 16 31 42 35 12 2 25 1 38-2 20-5 29-14 33-32 3-13 3-31 3-96 0-45 0-67 1-70 1-7 5-13 9-17 8-7 13-8 43-8 23 0 25 0 25 4 0 3-3 5-12 6-6 1-9 2-11 3l-2 2-1 86c0 56-1 87-2 91-3 16-9 27-20 38-12 12-26 18-50 20-20 2-45 2-59 0z" fill="#fbe5c8"/><path d="m802 1183c-52-5-101-25-142-58-9-7-33-31-37-36-1-2-5-7-9-13-18-24-31-48-39-75-9-29-13-53-13-84 0-69 26-134 74-183 15-16 27-26 44-37 34-22 68-36 110-42 15-2 60-2 75 0 41 7 76 20 108 41 15 10 24 17 38 31 23 22 40 45 53 73 18 36 26 70 27 111 1 30-2 53-11 81-5 19-16 44-24 56-9 14-17 26-22 32-11 14-14 17-24 27-44 43-99 68-162 74-11 1-36 1-47 0zm62-47c34-6 66-20 93-39 17-12 44-41 55-59 7-11 18-34 23-47 16-47 16-98 0-145-21-62-70-112-132-135-48-18-103-18-151 0-29 11-55 27-78 49-43 42-67 97-67 158 0 35 7 66 22 97 9 18 15 28 28 43 11 13 30 32 40 39 29 21 64 35 101 41 15 2 52 1 67-1zm-70-84c-19-2-31-6-42-13-13-9-22-22-26-39-3-12-3-24-3-84 0-68 1-62-8-65-8-2-10-6-7-9 2-2 66-2 67 0 3 3 0 7-9 9-11 2-10-2-10 47 0 23 0 50 0 61 1 32 4 46 13 55 17 17 64 19 86 4 6-4 11-11 14-18 4-12 4-18 5-98 0-50 1-77 2-79 2-6 5-11 9-14 7-7 10-7 39-7 26 0 26 0 27 2 1 2 1 5-2 7-1 0-5 1-9 2-10 1-12 2-13 6-1 2-1 31-1 87 0 91 0 90-6 104-5 14-17 27-29 34-12 6-21 8-48 10-16 1-30 1-46-1z" fill="#fbe4c6"/><path d="m801 1183c-21-2-47-8-67-15-24-9-54-26-74-42-11-9-31-29-38-38-26-34-38-55-48-86-13-40-16-86-9-127 9-53 34-100 71-139 51-53 117-80 190-80 73 0 139 28 190 80 49 50 75 115 75 184 0 18-1 30-4 46-7 42-23 78-49 112-4 5-8 11-9 13-3 5-27 29-37 36-20 16-51 34-74 42-21 8-47 13-69 15-13 1-35 1-48 0zm53-45c37-5 72-19 102-41 17-12 43-40 55-59 8-11 18-33 23-46 15-44 16-90 4-134-21-75-82-134-158-153-20-5-32-6-54-6-36 0-65 7-97 22-46 22-85 63-105 109-23 52-25 109-7 162 5 13 15 34 22 46 12 19 39 47 56 60 29 21 65 36 101 41 13 2 44 2 57 0zm-60-85c-19-2-29-5-41-12-12-8-22-21-27-35-4-13-4-15-5-83-1-74 0-68-8-70-7-2-10-6-7-9 2-2 66-2 67 0 3 3 0 7-9 9-4 1-8 2-9 3-2 2-2 6-2 62 0 54 0 61 1 70 3 20 8 28 22 35 12 6 34 9 50 6 24-4 36-12 41-30 3-11 4-20 4-95 0-54 1-77 2-79 2-5 6-11 10-15 7-6 10-6 38-7 26 0 26 0 27 2 1 2 1 5-2 7-1 0-5 1-10 2-8 1-11 2-13 5-1 1-1 18-1 69 0 77-1 105-3 114-1 3-3 10-6 15-4 7-6 10-12 16-11 11-23 17-41 19-25 3-44 3-67 2z" fill="#fbe3c4"/><path d="m803 1183c-51-5-102-25-142-57-36-29-69-75-84-119-10-28-14-52-15-82-1-37 5-69 18-103 32-83 106-146 193-163 34-7 73-7 107 0 77 16 143 66 181 136 16 29 26 64 29 100 2 16 1 46-2 62-4 29-12 54-25 79-7 15-16 28-33 50-7 9-27 30-38 38-28 23-66 41-100 50-29 7-61 10-90 8zm48-45c33-3 69-17 97-35 22-15 48-41 63-64 9-14 18-33 24-49 16-47 15-99-2-145-19-54-60-98-111-123-21-10-42-17-66-20-15-2-46-2-61 0-47 7-89 28-123 61-28 28-48 60-58 97-15 53-10 108 14 157 12 24 27 44 49 66 17 16 30 25 50 35 38 19 79 26 123 22zm-57-86c-19-2-32-6-45-14-11-7-20-22-24-37-3-13-4-25-4-85 0-67 1-62-8-64-7-2-11-6-7-9 1-1 64-2 66 0 2 1 2 4 0 6-1 1-5 2-9 3-11 2-10-2-11 52-1 68 1 90 7 102 5 10 15 17 30 21 12 3 33 3 45 0 22-6 31-16 35-37 1-8 2-20 2-86l1-76 2-6c3-7 10-15 16-17 4-1 9-2 31-2 26 0 26 0 27 2 1 2 1 5-2 7-1 0-5 1-10 2-8 1-13 3-14 5 0 1-1 27-1 59 0 32 0 71-1 88-1 35-1 36-8 51-4 7-6 10-12 16-11 11-24 17-42 19-25 3-44 3-67 1z" fill="#fbe2c1"/><path d="m803 1183c-73-6-141-44-184-100-34-44-50-85-56-138-2-18-1-47 1-64 7-47 26-90 55-127 8-10 31-34 42-42 37-29 78-47 126-55 11-2 16-2 40-2 24 0 29 0 40 2 48 8 89 26 126 55 10 8 33 31 42 42 29 37 48 79 55 127 3 18 3 57 0 74-6 40-19 74-39 105-18 28-37 49-58 66-53 42-121 63-188 57zm49-45c33-4 68-17 96-35 24-16 52-45 67-69 31-52 40-112 25-170-8-30-24-61-43-84-21-25-44-43-72-57-62-30-132-31-194-1-51 25-91 70-111 123-22 60-16 129 16 185 12 20 28 39 52 61 9 8 27 20 43 27 38 19 79 26 123 21zm-55-85c-16-1-26-4-38-9-22-11-34-29-37-60-1-5-1-36-1-68 0-66 1-61-8-64-8-2-11-7-7-9 1-1 13-1 33-1 35 0 36 0 34 5-1 3-3 4-10 5-3 0-6 2-7 3l-3 2 0 48c0 50 1 77 3 89 4 19 13 28 34 33 12 3 33 3 45 0 22-5 31-16 35-37 1-8 2-20 2-86l1-76 2-5c3-7 8-13 14-16 6-3 14-4 39-4 17 0 20 0 21 1 4 4 0 7-11 9-8 1-12 3-13 5 0 1-1 39-1 86 0 46-1 86-1 90-2 12-6 21-13 31-9 12-22 21-38 25-14 3-52 5-73 4z" fill="#fbe0bd"/><path d="m804 1183c-59-5-113-29-157-68-12-11-19-19-30-33-24-32-39-61-48-97-6-24-8-38-8-65 0-25 1-33 5-55 15-73 62-139 128-176 62-36 137-44 206-24 74 22 136 76 167 147 14 32 21 63 22 98 2 53-13 106-40 149-21 32-39 52-66 72-51 38-116 57-180 51zm38-44c42-3 79-17 113-40 11-8 33-29 44-42 38-47 55-108 46-169-6-46-29-91-62-124-35-35-78-56-128-64-11-2-45-2-56 0-35 5-66 17-93 35-99 66-128 196-68 297 13 22 41 52 61 67 32 23 71 37 110 40 15 1 19 1 33 0zm-46-87c-17-1-26-4-38-10-15-8-27-23-31-41-3-13-4-27-4-87l0-58-2-2c-1-1-4-2-6-3-4-1-8-4-8-6 0-3 3-3 35-3 34 0 35 0 34 5-1 3-4 4-11 5-3 0-6 1-7 3l-3 2 0 51c0 68 1 86 7 99 5 9 14 16 29 20 11 3 33 3 45 0 16-4 24-10 29-20 7-13 7-16 8-103l1-77 2-5c3-7 7-12 13-15 6-3 15-4 41-4 15 0 18 0 19 1 2 2 2 3-1 6-2 2-4 2-8 3-12 1-15 3-16 8 0 2-1 39-1 86 0 78 0 83-2 91-6 27-25 46-52 52-16 3-52 5-73 3z" fill="#fbdeb9"/><path d="m805 1183c-62-5-121-32-166-77-6-6-13-14-15-17-13-17-16-21-20-27-2-4-6-9-7-12-7-10-16-31-21-47-26-77-15-162 30-230 11-17 19-26 34-41 15-15 24-22 42-34 16-10 23-14 39-21 21-9 43-16 68-20 19-3 58-3 77 0 58 9 107 34 148 74 8 7 17 17 20 22 11 14 23 33 31 49 14 28 21 50 25 83 2 14 2 51 1 65-5 41-18 77-39 110-23 36-46 60-80 82-33 21-70 35-110 41-13 2-42 2-55 1zm48-45c39-5 77-20 107-43 9-7 28-26 38-38 20-24 34-52 42-83 17-68 2-139-42-193-9-12-25-27-38-36-31-23-63-37-102-43-15-2-49-2-64 0-24 4-43 10-64 20-45 22-79 56-101 101-16 32-22 61-22 98 0 22 1 35 7 55 6 22 16 46 28 64 11 17 36 44 53 57 19 15 46 29 71 36 16 5 26 6 50 9 6 1 31 0 40-1zm-54-85c-39-2-62-17-72-46-5-14-5-17-5-86l0-65-2-2c-1-1-4-2-6-3-6-1-10-7-6-9 3-2 64-1 66 0 4 3-1 7-10 9-3 0-5 1-7 3l-3 2 0 54c0 55 0 69 3 83 4 18 13 27 33 33 11 3 35 3 46 0 22-6 31-15 35-36 1-6 2-21 2-85 1-85 0-82 7-91 3-4 10-9 15-10 4-1 49-2 53-2 3 1 4 4 1 7-1 1-4 2-8 3-10 1-14 2-15 5-1 2-2 10-2 90-1 98 0 92-8 107-8 16-21 28-38 33-9 3-19 4-41 6-16 1-18 1-37 0z" fill="#fbdcb5"/><path d="m807 1183c-39-3-78-15-111-34-38-22-65-48-90-85-3-5-7-10-8-11-4-6-12-23-17-34-36-89-21-189 39-264 9-12 29-32 40-41 81-65 190-77 283-32 28 14 49 29 71 51 15 15 22 24 34 41 57 86 58 199 4 286-3 4-10 14-16 22-52 70-139 109-228 102zm47-45c43-6 88-25 117-53 26-24 41-44 53-69 16-33 24-68 22-104-1-33-8-59-21-87-18-38-43-67-77-89-27-18-55-29-89-34-14-2-51-2-65 0-33 6-62 17-88 33-15 10-24 17-36 30-54 54-76 133-58 208 8 31 22 60 42 84 10 13 34 35 43 42 33 24 70 37 110 41 10 1 36 0 47-1zm-45-85c-24-1-36-3-48-9-18-9-30-23-35-44-3-12-4-30-4-89 0-62 1-57-8-59-8-2-11-7-6-9 4-1 65-1 66 1 2 2 0 5-3 6-2 1-5 1-7 2-3 0-6 2-7 3l-3 2 0 55c0 35 0 59 1 66 2 20 6 31 14 39 5 5 9 7 20 10 8 2 9 3 25 3 14 0 18 0 24-2 21-6 30-15 34-35 1-7 2-18 2-86 1-72 1-78 2-82 3-7 8-13 14-17 5-3 7-3 17-3 20-1 41-1 42 0 2 2 1 5-1 7-1 1-6 2-10 2-4 1-9 1-10 2-5 2-5 2-5 89 0 87 0 91-5 103-5 13-16 27-27 33-12 7-23 10-50 12-11 1-21 1-23 1-2 0-6 0-9 0z" fill="#fadab1"/><path d="m813 1184c-61-4-115-25-160-64-18-15-33-34-49-58-10-14-14-23-20-37-37-85-27-184 28-260 52-72 136-113 224-110 40 1 72 10 109 27 72 35 124 101 141 181 4 19 6 33 6 56 0 30-4 54-12 81-10 32-22 54-46 85-28 36-71 68-117 84-31 11-70 17-102 15zm44-46c48-7 94-30 127-65 17-18 29-34 38-51 16-31 23-60 25-95 2-46-11-90-37-129-41-62-109-98-184-98-91 0-171 54-205 139-16 39-19 82-11 125 6 32 22 67 41 91 17 21 35 38 53 50 32 21 66 33 106 37 8 1 37 0 48-2zm-70-86c-31-4-51-18-60-43-6-15-6-19-6-88l0-63-2-2c-1-1-4-3-6-3-7-1-11-5-9-8 0-1 13-1 34-1 30 0 34 0 34 1 1 4-2 6-11 7-5 1-8 2-9 5-1 3-1 110 0 123 3 30 11 41 35 47 7 2 10 2 24 2 15 0 17 0 25-3 5-1 10-3 12-4 6-3 13-10 16-16 6-12 6-14 7-99 1-71 1-78 2-82 4-11 10-17 19-19 6-2 53-3 55-1 2 2 2 5 0 7-1 1-5 2-10 3-5 1-9 2-10 2-4 2-4 1-5 92 0 86-1 87-3 94-9 30-30 47-63 50-17 2-57 2-69 0z" fill="#fad9ad"/><path d="m809 1183c-52-4-102-22-143-54-14-10-35-32-45-45-9-11-22-31-27-41-5-9-11-24-16-36-18-52-20-109-4-162 28-97 110-170 209-186 89-15 180 16 240 83 71 79 89 189 46 286-12 27-34 59-57 81-42 41-93 66-152 73-14 2-37 2-50 2zm49-45c37-5 72-20 101-42 10-8 29-26 39-38 24-29 40-65 47-106 3-16 2-51 0-67-6-33-16-60-33-85-10-15-17-24-30-37-35-35-82-57-132-63-12-1-36-1-47 0-86 9-158 68-186 150-13 38-15 81-6 120 8 33 23 64 44 89 23 28 45 45 74 59 26 13 48 19 81 22 7 1 39 0 48-2zm-70-86c-33-4-53-20-61-48-4-13-4-20-4-82 0-39 0-61-1-63-1-3-2-4-4-5-2-1-4-2-5-2-4 0-9-4-8-7 0-1 5-1 34-1 31 0 34 0 34 2 1 3-3 6-9 7-7 1-10 3-11 5-1 3-1 112 0 123 3 26 9 36 24 43 10 5 22 7 38 6 21-1 33-5 42-13 6-6 9-12 12-22 2-8 2-12 3-86 1-69 1-78 2-83 3-10 10-17 19-20 3-1 13-2 29-2 26-1 27-1 27 4 0 3-2 4-11 6-9 1-13 3-14 7 0 1-1 39-1 83 0 88 0 93-5 105-4 11-12 22-20 28-11 9-23 13-41 15-17 2-56 2-68 0z" fill="#fad8aa"/><path d="m809 1183c-35-2-69-11-100-27-44-22-77-52-106-97-35-52-48-119-38-183 19-111 107-199 217-218 99-16 197 23 257 104 57 77 68 179 28 267-12 27-34 58-57 80-21 20-39 34-65 46-34 17-65 26-104 28-15 1-17 1-33 0zm37-44c41-4 80-19 112-43 11-8 30-26 40-39 21-25 37-57 44-90 9-41 6-86-8-125-17-46-51-87-92-112-27-16-60-27-91-31-12-1-36-1-47 0-50 5-96 28-132 63-34 34-55 76-63 125-2 15-2 49 0 64 7 41 23 77 47 106 10 12 29 31 40 39 43 32 98 48 152 43zm-58-88c-22-2-40-12-51-25-5-6-10-17-12-24-3-12-4-21-3-81 0-41 0-61-1-63-1-3-5-6-9-6-3 0-8-5-7-7 1-2 3-2 34-2 36 0 37 0 33 5-1 2-3 3-8 3-7 1-10 3-11 7 0 1 0 30 0 63 0 58 0 62 2 70 1 5 3 11 5 14 5 11 16 18 32 21 8 2 11 2 23 1 21-1 33-5 43-13 7-6 10-12 12-26 1-3 1-35 2-83 1-69 1-78 2-83 3-10 10-17 19-20 3-1 13-1 29-2 26-1 27-1 27 4 0 3-2 4-11 6-5 1-9 2-10 2-5 2-4-2-5 91-1 97 0 93-7 107-10 20-25 32-47 36-20 4-58 5-80 2z" fill="#fad6a8"/><path d="m809 1183c-48-3-94-19-134-47-35-25-68-63-87-102-30-62-34-132-13-198 26-78 88-141 166-167 114-39 239 5 306 105 52 78 58 179 16 263-15 30-42 64-68 86-34 29-80 49-125 57-12 2-41 5-47 4-1 0-7 0-14-1zm49-45c37-6 70-20 99-41 11-8 32-28 42-41 23-28 38-62 45-101 2-10 2-15 2-35 0-23-1-31-4-48-12-55-46-105-93-136-26-18-51-28-84-34-12-2-14-2-39-2-25 0-27 0-39 2-32 6-58 17-84 34-44 30-77 76-91 127-5 21-7 31-7 56 0 20 0 25 2 35 7 39 23 74 46 102 11 13 30 31 40 39 31 23 69 38 110 43 11 1 43 0 54-1zm-70-86c-22-3-39-11-50-25-4-5-10-18-12-25-3-12-3-21-3-81 0-43 0-61-1-64-1-3-5-6-9-6-3 0-8-5-7-7 1-2 3-2 34-2 36 0 37 0 33 5-1 2-3 3-8 3-4 1-8 2-9 3l-2 2 0 58c0 58 0 69 3 82 4 17 13 26 31 31 10 3 32 4 44 1 22-5 34-15 38-35 1-6 2-20 2-85 1-81 1-81 5-89 2-5 8-10 13-12 4-2 6-2 29-3 27-1 30-1 30 4 0 3-2 4-11 6-9 1-13 3-14 7-1 1-1 34-1 83 0 95 0 97-9 114-7 13-16 22-28 28-14 7-26 8-63 9-15 0-26 0-33-1z" fill="#fad5a5"/><path d="m812 1183c-54-2-105-22-150-56-28-21-57-57-73-90-29-57-35-122-19-184 23-89 91-160 179-187 12-4 33-8 47-10 12-2 48-2 60 0 61 8 115 34 157 76 80 80 100 203 50 305-16 32-44 67-72 89-11 9-29 21-43 28-42 22-87 32-136 29zm47-45c35-6 70-20 97-40 19-14 43-40 56-59 16-25 28-55 33-86 2-13 3-42 1-55-9-92-75-169-164-192-22-6-28-6-56-6-28 0-34 1-57 7-67 17-123 67-149 132-12 29-16 56-15 89 1 34 8 62 23 93 17 34 50 70 83 89 27 16 57 27 86 30 5 1 10 1 11 1 6 1 42 0 51-2zm-69-86c-33-4-56-21-63-49-3-13-4-21-4-83 0-70 0-66-8-68-6-2-10-5-9-8 1-1 7-1 34-1 36 0 37 0 33 5-1 2-3 3-8 3-4 1-8 2-9 3l-2 2 0 63c0 68 0 72 5 85 3 7 10 15 17 18 12 6 30 9 46 7 29-3 43-14 48-37 1-6 2-18 2-85 0-60 1-79 2-82 2-6 4-10 9-14 7-7 8-7 37-8 27-1 30-1 30 3 0 3-2 4-11 6-9 2-13 3-14 7-1 1-1 34-1 83 0 81 0 90-3 101-5 17-18 33-33 40-10 5-17 6-31 8-16 2-53 2-65 0z" fill="#fad4a2"/><path d="m801 1183c-55-7-98-24-139-56-11-9-31-28-38-36-21-27-26-35-36-55-28-56-35-121-19-183 19-74 70-137 139-171 28-14 55-22 87-26 12-2 48-2 60 0 61 8 115 34 157 76 80 80 100 203 50 305-12 24-33 53-52 71-41 39-88 63-146 73-9 1-55 3-63 2zm58-45c32-5 63-17 89-35 12-8 33-26 42-37 13-15 16-19 22-28 15-24 27-53 32-82 3-14 3-44 2-59-10-93-75-169-165-192-19-5-34-7-55-7-21 0-34 2-53 6-91 22-157 99-167 192-2 15-1 43 2 58 6 32 17 60 33 84 14 22 42 50 63 64 28 18 63 32 94 35 5 1 10 1 11 1 6 1 42 0 51-2zm-69-86c-21-2-35-9-47-21-11-11-17-23-19-43-1-5-1-33-1-69 0-70 1-65-8-68-6-2-10-5-9-8 1-1 7-1 34-1 32 0 33 0 33 2 0 3-3 5-9 6-7 1-10 3-11 7 0 2 0 31 0 64 0 58 0 62 2 70 1 5 3 11 4 13 3 6 10 14 16 17 12 6 31 9 46 7 30-3 43-14 48-37 1-6 2-18 2-85 0-55 1-79 2-82 2-6 4-11 9-15 7-7 8-7 37-8 27-1 30-1 30 3 0 3-2 4-11 6-5 1-9 2-10 2-5 2-4-2-5 90-1 98 0 93-8 109-4 7-6 10-12 17-7 7-9 9-16 12-10 5-17 7-31 8-16 2-53 2-65 0z" fill="#fad3a0"/><path d="m801 1183c-38-5-68-14-98-30-13-7-31-19-42-28-10-8-30-27-35-34-2-3-6-8-8-10-9-11-22-32-28-44-29-58-36-128-17-191 21-74 75-136 145-167 101-45 218-24 296 55 33 33 57 75 68 120 16 61 10 124-17 180-7 15-12 22-23 39-14 19-18 25-31 37-40 39-88 63-146 72-9 1-55 3-63 2zm50-44c47-5 89-25 122-55 12-11 15-14 27-29 24-28 41-71 46-112 2-21 1-50-4-71-20-91-95-160-188-172-14-2-42-2-57 0-41 5-79 22-111 48-45 36-74 91-80 149-2 15-1 44 2 59 6 36 23 74 44 99 12 15 15 18 27 29 45 42 109 63 172 55zm-62-87c-21-2-35-9-47-21-6-6-8-9-11-16-8-18-9-22-9-96 0-47 0-62-1-63-1-2-3-3-7-4-7-2-9-4-9-6 0-2 1-2 33-2 30 0 33 0 34 1 1 3-3 6-12 7-2 0-5 2-6 3l-2 2 0 64c0 60 0 64 2 72 3 11 5 16 10 22 6 6 11 9 21 12 12 3 24 5 35 3 24-3 37-10 44-23 6-12 7-20 7-98 0-69 0-80 4-87 3-6 9-12 14-14 5-2 7-2 30-3 27-1 29-1 29 3 0 3-2 4-12 6-9 1-12 3-14 7-1 1-1 33-1 82 0 50 0 82-1 88-2 18-8 31-20 43-12 12-25 17-47 19-17 2-52 2-64 0z" fill="#fad19d"/><path d="m795 1182c-62-8-116-35-159-79-15-16-37-46-46-65-41-82-37-182 13-260 19-29 46-58 75-77 61-42 138-56 210-38 76 18 140 69 175 139 34 68 37 149 8 219-8 19-24 46-36 62-3 3-6 8-9 11-2 3-9 10-15 16-41 39-89 63-146 72-14 2-55 3-69 1zm67-44c55-10 98-35 134-77 12-14 15-18 22-30 15-26 25-57 29-88 1-13 1-46-1-58-13-72-57-132-122-164-31-15-62-22-97-22-35 0-65 7-97 22-76 37-124 114-124 198 0 32 5 56 17 86 12 28 29 53 56 78 31 29 71 48 114 55 15 2 15 2 37 2 16 0 23-1 32-2zm-72-86c-21-2-35-9-47-21-11-11-17-24-19-44 0-4-1-35-1-68 0-36 0-61-1-63-1-3-4-5-10-6-4-1-7-3-6-6 0-2 2-2 33-2 30 0 33 0 34 1 1 3-3 6-12 7-2 0-5 2-6 3l-2 2 0 59c0 63 0 71 5 84 2 6 6 13 11 17 9 8 34 14 52 12 11-1 24-5 30-8 8-5 14-12 17-21 4-11 4-22 5-98 0-72 0-73 2-79 3-8 8-15 15-18 5-2 7-2 30-3 27-1 29-1 29 3 0 3-2 4-13 6-8 1-9 2-11 4l-3 3 0 80c0 51 0 83-1 89-2 18-8 31-20 43-12 12-25 17-47 19-18 2-52 2-64 0z" fill="#fad09a"/><path d="m802 1183c-25-3-46-8-64-14-58-21-103-57-137-112-20-32-33-68-37-110-1-13-1-45 0-58 6-47 23-90 52-128 11-15 37-40 51-51 66-49 147-65 226-45 47 12 88 36 123 72 26 26 44 54 57 88 30 76 22 165-21 233-22 35-47 62-78 82-33 22-68 36-108 42-10 2-17 2-37 2-13 0-26 0-28 0zm58-45c35-6 68-19 95-39 18-13 45-41 57-60 15-23 26-50 32-81 2-12 2-14 3-38 0-23 0-27-2-37-6-33-17-61-35-86-10-15-17-24-31-36-35-34-79-55-128-61-13-2-41-1-53 0-25 3-46 10-69 21-24 12-42 25-61 44-32 33-52 73-60 119-2 12-3 45-1 58 4 36 16 68 35 98 11 17 40 47 57 59 29 20 64 34 98 39 4 1 9 1 10 1 7 1 45 0 53-2zm-69-86c-21-2-36-8-47-20-8-8-12-14-15-23-5-14-5-14-5-85 0-37-1-67-1-68-1-2-5-4-9-4-4-1-7-3-6-6 0-2 2-2 33-2 30 0 33 0 34 1 1 3-3 6-12 7-2 0-5 2-6 3l-2 2 0 59c0 33 0 62 1 66 2 18 6 27 13 34 13 13 43 18 70 11 18-5 29-15 33-30 3-11 3-24 3-94 0-71 0-72 2-78 3-8 8-15 15-18 5-2 7-2 30-3 16 0 26 0 27 0 2 1 2 5 0 6-1 1-6 2-11 2-8 1-9 2-11 4l-3 3 0 80c0 49 0 83-1 89-2 19-8 31-20 44-12 12-25 17-48 19-18 2-50 2-63 0z" fill="#facf98"/><path d="m796 1182c-43-5-83-20-117-43-31-21-54-46-77-81-21-32-34-70-38-112-2-15-1-52 2-67 10-59 35-108 79-150 80-77 200-96 300-46 27 14 46 27 69 50 23 23 37 43 51 71 18 36 26 74 26 115 0 30-4 54-12 80-10 30-21 52-43 82-40 53-101 89-169 100-16 3-54 3-70 1zm57-43c38-5 74-19 103-40 18-13 44-41 56-59 15-22 26-49 31-77 6-27 5-62-1-91-5-23-18-54-31-74-16-24-38-46-60-61-50-34-115-46-174-32-39 9-74 28-103 56-13 13-20 21-31 36-17 26-29 54-35 86-2 10-2 14-2 37 0 24 0 27 3 38 6 30 17 58 32 81 12 19 38 46 57 60 29 21 64 35 102 40 13 2 40 2 54 0zm-62-87c-13-1-21-3-31-8-14-7-25-18-31-33-6-14-6-14-6-87 0-37-1-67-1-68-1-2-5-4-9-4-4-1-7-3-6-6 0-2 2-2 33-2 30 0 33 0 34 1 1 3-3 6-12 7-2 0-5 2-6 3l-2 2 0 64c0 61 0 64 2 72 3 15 9 23 20 29 11 6 32 9 46 7 30-4 44-14 48-36 2-11 3-51 3-91-1-43 0-74 3-81 2-6 9-13 15-16 5-2 7-2 30-3 25-1 29 0 29 2 0 4-2 5-13 7-7 1-11 3-12 6-1 2-1 24-1 81 0 84 0 93-4 105-6 19-22 35-41 42-16 5-59 8-86 5z" fill="#f9cd95"/><path d="m804 1183c-55-6-103-25-144-58-9-7-32-30-36-35-1-2-5-7-9-12-27-36-43-74-51-121-2-15-2-60 0-75 10-61 36-111 78-152 17-16 30-26 49-38 56-34 123-45 188-32 42 8 85 29 118 58 10 9 28 27 36 37 31 39 51 88 56 139 1 14 1 52-1 64-7 46-24 86-51 121-3 4-7 9-8 10-4 5-19 21-29 30-41 36-89 57-144 63-11 1-41 2-51 1zm46-43c37-4 75-18 105-40 18-13 45-42 58-61 18-28 29-60 34-95 1-11 1-38 0-49-4-32-15-65-32-92-22-36-59-68-97-85-65-29-139-25-200 10-20 11-34 22-50 39-34 35-55 80-61 130-1 13-1 47 1 59 5 30 17 61 33 85 12 18 40 47 57 60 30 22 67 36 104 40 11 1 38 1 49 0zm-59-88c-22-2-36-8-48-21-11-11-17-24-19-44-1-5-1-34-1-69 0-69 1-63-9-67-6-2-8-4-7-7 1-1 4-2 34-1l33 0 0 2c0 3-3 5-9 5-6 1-9 3-11 5-1 1-1 21-1 65 0 60 0 64 2 72 5 20 13 29 33 34 12 3 25 4 37 2 24-4 36-12 42-27 4-11 5-20 5-94 0-38 1-72 1-76 1-14 10-25 22-28 6-1 51-2 53 0 1 1 1 2 0 3-1 3-3 4-13 5-7 1-11 3-12 6-1 2-1 26-1 88 0 77 0 85-2 92-5 20-16 36-33 45-9 4-15 6-25 8-24 3-50 4-71 1z" fill="#f9cc91"/><path d="m797 1182c-56-6-107-29-149-67-18-16-33-35-51-63-11-18-23-49-29-74-6-25-8-62-5-87 6-50 23-93 54-133 9-12 33-36 45-45 36-28 76-46 119-53 67-11 134 3 191 41 50 33 87 82 105 139 5 16 8 30 11 48 2 13 2 18 1 38-1 31-4 51-13 78-11 34-29 65-56 95-36 41-90 71-147 82-22 4-55 5-77 3zm56-43c37-5 71-18 101-40 9-7 36-32 45-43 25-31 42-71 47-112 2-13 1-41 0-53-6-42-22-79-48-112-8-10-27-28-37-36-51-38-113-53-174-42-44 8-83 28-115 60-47 46-70 105-66 171 2 37 14 75 34 106 12 19 40 48 58 61 29 21 63 34 100 39 14 2 42 2 56 0zm-62-87c-37-4-58-21-66-54-2-8-2-11-3-75-1-76 0-69-10-72-6-2-8-4-7-6 1-1 4-2 34-1l33 0 0 2c0 3-3 5-9 5-6 1-9 3-11 5-1 1-1 22-1 62 0 56 0 61 2 71 4 23 12 33 34 38 22 6 49 3 64-7 10-7 15-17 18-34 1-5 1-34 2-83l1-75 3-6c3-7 8-12 15-15 4-2 6-2 31-2 25 0 26 0 27 2 1 4-1 6-13 7-7 1-11 3-12 6-1 2-1 27-1 88 0 77 0 85-2 92-5 21-17 37-35 45-10 5-18 7-33 8-18 2-47 2-61 0z" fill="#f9ca8d"/><path d="m805 1183c-36-4-64-12-95-27-44-21-76-50-104-92-10-15-12-18-16-27-14-28-22-57-26-88-2-18-1-51 1-69 7-46 26-88 55-125 8-10 30-32 41-41 82-65 194-77 287-29 25 13 44 27 64 47 16 16 23 25 35 42 23 35 37 74 42 117 2 16 1 52-1 66-5 29-13 56-25 80-7 14-17 30-33 50-7 10-26 28-38 38-30 24-66 42-103 51-20 5-34 7-59 7-12 0-24 0-26 0zm57-45c36-6 70-20 97-41 10-8 29-27 40-39 26-31 42-68 47-110 2-14 2-42 0-57-10-72-53-133-117-167-22-12-48-20-76-24-11-2-42-2-53 0-50 7-92 27-127 61-27 27-45 55-57 91-7 22-10 43-10 67 0 35 7 66 22 97 8 17 15 28 27 41 10 12 30 31 40 39 31 23 68 38 110 43 8 1 49 0 57-2zm-69-86c-36-3-58-20-66-50-3-13-4-24-4-85 0-68 1-63-9-66-6-2-8-4-7-7 1-1 4-2 34-1 33 0 33 0 33 2 0 3-2 4-9 6-5 1-7 2-9 4l-2 2 0 64c0 72 0 72 7 85 6 13 18 20 42 23 15 2 36-1 48-7 7-3 14-11 17-17 6-13 7-28 7-108 0-43 0-67 1-70 2-10 10-19 18-22 2-1 13-1 29-2 26 0 26 0 27 2 1 4-2 5-10 7-4 1-9 2-10 2-6 2-5-1-5 84 0 78 0 93-3 104-3 11-9 22-18 31-7 7-20 14-31 16-16 3-56 5-78 3z" fill="#f9c889"/><path d="m802 1182c-63-6-118-33-162-76-12-12-24-27-36-46-41-62-52-143-30-216 17-59 55-110 107-145 33-22 67-35 108-41 15-2 60-2 75 0 49 8 91 26 128 56 10 8 33 31 41 41 29 37 48 80 55 125 3 19 4 50 1 69-6 51-22 91-56 135-35 47-93 82-153 95-23 5-55 6-77 4zm60-44c37-6 72-22 99-43 9-7 28-26 38-38 12-14 18-23 26-40 16-32 23-62 23-98 0-24-2-40-9-62-23-80-92-141-175-156-37-6-79-3-114 10-77 28-132 97-143 179-2 15-2 43 0 57 5 33 16 65 33 91 12 19 37 45 54 58 29 22 66 37 103 42 13 2 52 1 65-1zm-68-86c-43-4-65-25-69-66-1-5-1-36-1-69l0-60-2-2c-1-1-4-3-6-3-6-1-9-3-8-6l0-2 33 0c33 0 33 0 34 2 0 3-2 4-9 6-5 1-7 2-9 3l-2 2 0 60c0 65 0 71 5 85 4 11 12 19 23 23 26 10 62 6 78-9 5-5 9-13 11-22 3-13 3-30 3-96 0-52 0-68 1-72 2-10 9-18 18-21 4-1 8-2 30-2 23 0 25 0 26 2 2 3-2 5-10 6-9 1-13 3-14 6-1 1-1 32-1 78 0 42 0 81-1 87-1 14-3 20-8 31-8 17-23 28-42 33-15 4-56 5-78 3z" fill="#f9c887"/><path d="m801 1182c-21-2-47-8-67-15-13-5-37-17-49-24-19-12-41-30-53-44-9-10-20-25-29-39-56-86-54-201 4-288 13-20 35-44 54-58 37-29 79-48 128-56 15-2 60-2 75 0 33 5 63 15 89 30 86 47 137 135 137 232 0 51-14 100-41 140-30 45-62 74-106 96-25 12-45 19-70 23-24 4-49 5-72 3zm53-43c25-3 46-10 68-20 21-10 37-21 54-38 20-19 32-34 41-51 30-52 37-114 21-171-23-81-91-142-173-157-40-7-84-3-121 12-63 25-112 79-131 144-6 22-9 39-9 62 0 26 3 47 11 71 5 15 16 38 24 50 11 17 36 43 51 55 31 24 71 40 112 45 10 1 41 1 51-1zm-61-87c-15-1-24-4-34-9-22-11-33-29-36-57-1-5-1-36-1-69l0-60-3-3c-1-1-4-3-6-3-5-1-8-3-8-6l0-2 31 0c17 0 32 0 34 0 1 0 2 1 2 2 0 3-3 4-9 6-5 1-8 2-9 4l-2 2 0 60c0 53 0 62 1 70 3 21 9 30 23 36 22 10 54 9 75-2 8-5 15-14 18-24 3-11 3-20 4-94 0-53 1-77 2-79 3-9 9-16 18-19 4-1 8-2 30-2 23 0 25 0 26 2 2 3-1 5-10 6-9 1-13 3-14 6-1 1-1 27-1 75 0 76-1 99-3 109-1 3-3 9-5 13-10 21-28 33-53 36-25 3-45 4-67 1z" fill="#f9c685"/><path d="m803 1182c-22-2-47-8-67-15-14-5-38-17-51-25-33-21-58-47-82-83-20-30-32-64-38-101-3-18-3-49-1-66 6-55 27-103 63-145 41-48 97-79 163-89 15-2 59-2 74 0 49 8 91 26 128 56 12 9 32 29 41 41 28 35 46 75 54 119 6 34 5 73-3 107-13 56-49 111-94 146-37 29-79 47-124 53-15 2-48 3-62 2zm48-43c37-4 76-19 107-42 14-10 42-40 52-55 5-8 14-24 18-33 30-67 25-144-13-205-35-57-92-95-159-105-15-2-46-2-61 0-48 7-92 29-126 63-55 55-77 135-58 211 6 24 18 51 31 70 11 16 38 44 52 54 27 20 58 33 91 39 21 4 41 5 65 2zm-57-88c-16-1-23-3-36-9-21-10-32-29-35-58-1-5-1-34-1-68 0-58 0-59-2-61-1-1-4-3-6-3-2-1-5-1-6-2-3-1-4-5-2-6 2-1 64-1 65 0 1 1 1 1 0 3-1 2-2 3-11 4-3 1-6 2-7 3-2 2-2 3-3 48-1 83 1 100 14 113 6 6 13 9 24 12 12 3 33 3 45 0 22-6 32-16 36-38 1-8 2-20 2-86l1-76 2-6c3-6 8-12 14-15 6-3 16-3 38-3 18 0 20 0 21 2 2 3-2 5-11 6-8 1-12 3-14 5 0 1-1 40-1 87-1 92-1 92-6 105-4 9-8 16-15 22-14 14-26 18-63 21-16 1-27 1-45-1z" fill="#f9c481"/><path d="m809 1183c-25-3-38-5-56-10-41-12-81-36-112-67-6-6-12-13-15-16-3-3-7-9-10-13-36-48-54-104-52-165 2-67 28-128 75-176 39-41 91-67 149-77 17-3 60-3 77 0 53 8 96 28 136 62 18 16 33 32 47 54 19 28 32 59 38 93 7 36 7 78-2 113-9 38-24 69-51 104-40 52-103 88-171 97-10 1-45 3-53 2zm46-44c39-5 78-21 108-45 16-13 39-38 50-55 17-26 29-58 33-93 2-12 1-43-1-57-7-48-29-92-63-126-37-37-84-59-138-64-64-6-129 18-175 64-28 28-49 63-58 101-16 61-6 124 28 176 12 18 41 49 58 61 35 24 74 38 118 41 8 1 29 0 39-2zm-60-87c-16-1-23-3-33-8-23-11-35-29-38-59-1-5-1-34-1-68 0-58 0-59-2-61-1-1-4-3-6-3-2-1-5-1-6-2-3-1-4-5-2-6 1 0 15-1 33-1 17 0 32 0 33 1 2 1 0 4-2 6-1 1-5 1-7 2-3 0-6 2-7 3l-3 3 0 48c0 50 1 78 3 89 4 19 14 29 35 34 12 3 33 3 44 0 16-4 26-11 31-22 6-13 6-16 7-102 1-75 1-76 3-81 3-8 7-12 14-15l6-3 26 0c24 0 26 0 27 2 2 3-2 5-11 6-8 1-12 3-14 6-1 1-1 19-1 49 0 26 0 66-1 88-1 38-1 41-3 47-7 24-24 40-48 46-15 4-54 5-75 3z" fill="#f9c47e"/><path d="m803 1182c-62-5-119-32-163-76-18-18-41-50-52-73-30-62-34-134-11-200 13-38 34-72 63-101 14-14 23-22 41-33 63-42 143-55 217-34 93 26 165 102 186 197 5 21 6 31 6 58 0 18 0 27-2 36-6 39-18 74-38 103-7 10-10 15-22 31-11 15-35 36-56 50-50 33-109 48-168 43zm53-44c37-5 75-20 105-43 9-7 28-25 37-37 59-70 66-174 18-253-12-20-33-44-51-59-45-36-102-53-158-48-85 8-158 64-188 145-21 57-17 122 11 177 5 10 16 27 19 30 1 1 5 5 8 10 9 10 24 26 34 33 34 27 78 44 124 47 9 1 30 0 42-2zm-61-87c-45-4-67-25-71-68-1-5-1-36-1-69l0-59-3-2c-2-1-3-2-4-2-1 0-3 0-5-1-4-1-7-5-4-7 2-1 64-1 65 0 2 1 0 4-2 6-1 1-4 1-7 2-6 1-9 3-10 7-1 4-1 95 0 115 2 37 10 49 37 56 7 2 11 2 22 2 36 0 54-12 58-40 1-8 2-20 2-86 1-75 1-76 3-81 3-8 7-12 14-15l6-3 26 0c24 0 26 0 27 2 2 3-2 5-11 6-10 1-12 2-14 5-1 2-2 9-2 87 0 79 0 85-2 93-5 26-23 45-49 51-15 4-53 5-76 3z" fill="#f9c27c"/><path d="m804 1182c-52-4-103-25-142-57-20-16-44-43-58-65-2-3-5-8-7-10-7-11-18-36-23-53-16-52-16-107 0-157 23-73 76-132 145-163 35-15 69-23 107-23 82 0 158 37 209 102 55 71 70 167 39 252-5 12-14 33-19 40-2 3-5 8-8 12-8 13-25 33-35 44-55 55-132 83-208 76zm54-44c38-6 72-20 102-43 9-7 28-25 37-37 38-46 56-109 47-170-8-56-37-106-82-143-23-18-56-35-86-42-18-4-30-6-51-6-38 0-68 7-101 24-62 32-106 91-118 160-11 63 7 129 46 176 24 29 51 50 82 63 39 17 81 23 123 17zm-63-87c-11-1-17-2-23-4-25-8-40-23-46-47-3-12-4-26-4-86 0-57 0-59-2-61-1-1-4-2-6-3-2-1-5-2-6-2-3-1-4-4-2-5 1 0 15-1 33-1 26 0 32 0 33 1 2 3-1 5-9 7-6 1-9 3-10 7-1 4-1 100 0 117 1 14 3 25 6 32 5 11 15 18 30 22 11 3 34 3 46 0 19-5 29-13 33-27 4-12 4-17 5-96 1-70 1-77 2-81 3-7 7-12 13-15 6-3 15-4 41-4 14 0 18 0 19 1 1 1 1 2 0 3-1 2-2 3-11 4-9 1-11 2-13 5-2 2-2 8-2 90 0 79-1 88-2 93-4 13-12 27-21 35-14 11-26 15-59 17-18 1-23 1-43 0z" fill="#f9c179"/><path d="m804 1182c-62-5-118-31-162-74-24-23-47-56-59-85-26-62-28-132-5-196 5-14 18-40 27-53 11-16 20-28 34-41 36-36 80-60 129-71 22-5 30-6 58-6 27 0 36 1 57 6 67 15 125 55 164 113 8 13 21 38 26 52 20 55 22 114 5 170-5 17-16 42-23 53-2 3-5 7-7 10-9 15-25 34-38 47-42 41-93 65-150 73-14 2-42 3-56 1zm38-42c56-4 105-27 142-67 29-30 47-62 56-99 13-52 8-104-16-152-17-35-42-64-74-86-28-19-58-31-93-36-13-2-49-2-61 0-37 6-65 17-93 35-47 31-80 79-93 133-16 68 0 139 43 190 10 12 28 30 38 37 43 33 97 49 151 45zm-44-88c-25-2-42-8-55-21-7-7-11-14-14-23-5-15-5-16-6-87-1-75 0-67-9-70-7-2-10-6-7-7 1 0 16-1 33-1 28 0 31 0 32 2 2 2-2 6-9 6-7 1-10 3-11 6-1 4-1 102 0 118 3 33 11 45 36 52 6 2 10 2 23 2 17 0 26-2 36-6 9-4 16-12 20-22 4-11 4-17 5-97 1-71 1-77 2-81 2-6 6-11 10-14 7-5 10-5 37-6 22 0 25 0 26 1 1 1 1 2 0 3-1 2-2 2-11 4-8 1-11 2-13 5-2 2-2 8-2 90 0 81-1 88-2 93-7 26-25 43-51 48-8 2-41 4-51 4-3 0-12-1-19-1z" fill="#f8c076"/><path d="m810 1183c-34-3-62-10-89-22-48-21-86-54-117-101-10-16-16-26-22-42-35-86-22-184 34-258 37-49 90-83 149-97 22-5 34-7 61-7 27 0 40 1 61 7 66 16 122 56 160 112 8 13 21 38 26 52 23 64 22 134-5 196-12 29-35 62-59 85-41 40-92 65-150 73-11 1-42 3-50 2zm44-44c55-7 104-33 142-78 13-15 21-26 29-43 16-32 23-62 23-99 0-38-7-67-23-100-11-22-24-40-42-57-57-56-138-78-215-57-61 17-112 59-140 116-11 22-17 43-21 67-2 15-2 46 0 61 6 42 23 80 50 111 25 29 54 50 86 63 23 9 42 13 70 16 6 1 30 0 40-1zm-57-88c-9-1-18-2-22-3-29-8-44-25-50-55-1-7-2-20-2-73-1-74 0-66-9-69-6-2-9-4-7-6 1-1 6-1 33-1 28 0 32 0 33 2 2 2-2 6-8 6-6 1-10 3-11 6-1 4-1 105 0 120 3 33 11 44 36 51 6 2 10 2 23 2 17 0 26-2 37-7 8-4 15-12 18-19 5-13 5-15 6-98 1-72 1-78 2-82 3-9 10-16 18-18 2-1 15-1 28-2 25-1 25-1 26 1 2 3-1 5-11 7-9 1-11 2-13 5-2 2-2 9-2 90-1 97 0 92-7 106-9 19-26 32-48 36-7 1-41 4-49 4-3 0-13-1-21-1z" fill="#f8be74"/><path d="m806 1182c-52-4-101-23-142-55-11-8-32-29-38-36-2-3-6-8-8-10-5-7-20-29-25-38-15-28-26-66-29-101-5-63 13-128 52-179 43-57 104-93 176-104 16-2 55-2 71 0 90 13 164 68 202 148 32 67 34 143 6 213-6 16-12 26-22 42-26 39-54 66-92 88-45 26-99 38-151 34zm48-43c38-5 72-18 102-40 5-4 15-12 22-20 23-23 35-38 47-63 22-44 28-93 18-142-17-84-84-152-168-171-114-25-228 42-261 154-6 20-8 38-8 63 0 36 7 65 22 97 13 26 27 45 52 68 34 31 80 51 128 56 11 1 35 0 46-1zm-55-87c-41-3-65-20-73-52-3-13-4-27-4-87 0-66 1-60-9-63-3-1-6-2-7-3-2-2-2-2 0-3 3-2 62-2 65 0 2 1 2 1 0 3-1 1-4 2-7 3-7 1-10 3-12 7-1 4-1 106 0 120 3 32 11 44 36 51 6 2 10 2 23 2 18 0 26-1 37-7 8-4 15-12 18-19 5-13 5-15 6-98 0-51 1-78 2-80 3-9 9-16 17-19 4-2 8-2 30-2 25-1 25-1 26 1 2 3-1 5-11 7-10 1-13 3-14 8-1 2-1 32-1 85 0 54 0 84-1 88-5 30-25 51-55 56-7 1-41 4-48 4-3 0-11 0-18-1z" fill="#f8bd71"/><path d="m811 1183c-75-4-147-42-192-101-16-22-26-38-35-57-44-100-21-216 56-293 69-69 173-94 265-64 86 28 152 97 175 184 14 54 11 109-8 161-5 14-14 31-22 44-7 11-11 17-23 32-6 8-26 28-37 36-50 40-115 61-180 57zm33-43c35-3 67-13 96-31 19-11 39-28 56-48 13-15 21-27 29-44 26-52 30-113 11-168-20-61-68-111-127-135-45-18-92-21-139-9-64 16-119 63-146 123-13 30-19 57-19 91 0 37 7 66 22 98 12 24 24 40 46 62 7 7 16 15 21 18 43 32 97 48 150 43zm-45-88c-41-3-65-19-73-51-3-13-4-30-4-89l0-56-2-2c-1-1-4-3-6-3-2 0-5-2-6-3-2-2-2-2-1-4 3-2 62-2 65 0 2 1 2 1 0 3-1 1-4 2-7 3-7 1-10 3-12 7-1 4-1 108 0 122 2 19 6 30 14 37 6 5 12 8 22 11 7 2 10 2 24 2 17 0 25-1 36-6 7-3 15-11 18-18 6-12 6-15 7-100l1-77 2-6c3-8 9-14 16-16 5-2 8-2 31-2l25 0 0 3c0 3-1 4-12 5-4 1-8 2-10 2-5 3-5 1-5 90 0 89 0 91-5 104-7 18-23 33-41 38-9 3-15 3-35 5-21 1-22 1-41 0z" fill="#f8bc6e"/><path d="m806 1182c-73-5-144-43-187-101-15-20-24-35-32-52-34-73-32-160 6-231 31-59 82-104 145-127 130-47 274 15 331 141 26 59 30 126 10 188-10 30-22 53-44 82-39 51-99 87-164 97-21 4-41 4-63 3zm52-43c36-5 71-19 99-40 18-14 44-41 56-59 18-27 29-58 34-92 2-13 2-47-1-60-4-28-14-56-27-79-35-60-93-99-162-109-11-2-49-2-60 0-61 9-112 40-148 88-37 51-51 113-39 175 5 26 18 57 32 78 13 19 37 45 56 58 31 23 70 37 110 41 12 1 39 0 51-1zm-48-86c-28-2-37-3-51-10-6-3-10-5-16-12-9-9-12-15-16-27-4-13-4-18-5-84-1-73 0-67-9-69-6-2-10-4-8-6 2-2 64-2 66 0 2 2-1 5-5 5-11 2-12 3-14 6-2 3-2 5-2 58 0 32 0 60 1 65 2 20 6 30 14 38 6 5 12 8 22 11 7 2 10 2 24 2 14 0 17 0 24-2 20-5 30-16 34-36 1-7 2-19 2-86l1-78 2-6c2-4 4-7 7-11 7-7 10-8 40-8l25 0 0 3c0 3-1 4-9 5-8 1-12 2-14 5l-2 2-1 87c0 77-1 88-2 93-4 14-10 24-19 33-9 9-20 14-35 17-5 1-45 4-48 4-1 0-4 0-7 0z" fill="#f8bb6c"/><path d="m813 1183c-24-2-42-5-61-10-31-9-62-25-90-46-10-8-30-27-35-34-2-2-5-7-8-11-14-18-29-44-37-63-32-81-24-171 23-243 26-40 62-72 105-93 25-12 50-20 78-25 20-3 56-3 76 0 76 12 141 53 183 116 45 69 56 155 28 233-10 27-21 47-41 74-41 55-108 92-178 100-10 1-36 2-43 1zm44-44c32-5 65-17 92-35 22-14 49-42 63-64 8-12 20-36 24-49 9-26 11-43 11-71 0-24-1-34-6-55-25-98-113-167-215-167-80 0-151 41-192 111-13 23-23 50-27 79-2 13-2 48-1 60 5 34 16 65 34 92 12 18 38 46 56 59 32 24 72 38 114 42 9 1 37 0 47-2zm-54-87c-8 0-17-1-20-2-27-4-47-20-55-44-4-13-5-19-5-85 0-34 0-62 0-64 0-3-4-7-8-7-4-1-9-4-8-6 1-2 66-2 67 0 1 2-3 5-9 6-7 1-10 3-11 6-1 3-1 112 0 123 2 19 5 29 13 36 5 5 12 9 23 12 7 2 10 2 24 2 14 0 17 0 24-2 20-6 30-16 34-36 1-7 2-19 2-85 1-81 1-80 5-88 3-5 10-11 15-13 4-1 11-1 30-2l25 0 0 3c0 3-1 4-9 5-8 1-12 2-14 5l-2 2 0 87c0 86-1 87-3 95-3 10-9 21-16 29-13 14-28 20-57 22-25 2-27 2-42 1z" fill="#f8b969"/><path d="m809 1182c-54-4-105-24-148-58-10-8-31-29-37-36-19-26-27-38-36-55-34-70-35-151-3-222 12-28 29-52 51-74 20-20 41-37 64-49 94-50 208-40 291 27 10 8 32 30 40 40 46 57 66 135 54 208-7 42-23 80-49 114-4 5-8 10-9 12-3 5-28 29-37 36-21 17-50 33-73 42-27 10-48 14-76 16-14 1-19 1-34 0zm38-42c40-4 79-18 111-42 16-11 42-39 54-57 44-66 49-155 12-225-35-66-99-110-173-118-11-1-36-1-47 0-92 10-169 76-191 166-5 21-6 31-6 55 0 26 2 40 8 62 8 29 22 55 42 78 11 13 30 32 40 39 43 32 98 47 151 42zm-58-89c-27-3-47-16-57-35-8-17-9-22-9-94 0-40 0-61-1-64-1-4-3-6-9-7-4-1-8-4-7-6 1-1 66-1 66 0 0 0 0 2-1 3-1 1-3 2-8 3-4 1-7 2-9 3l-3 2 0 63c0 61 0 63 2 73 1 5 3 12 4 15 7 15 26 24 53 24 28 0 47-9 55-25 6-12 6-13 6-98 1-81 1-80 5-89 2-5 10-11 15-12 5-1 49-3 53-2 2 0 2 1 2 3 0 3-2 4-10 5-8 1-11 2-14 5l-2 2-1 87c-1 98 0 93-8 109-4 7-6 10-12 17-13 13-25 18-55 20-17 1-44 1-57 0z" fill="#f8b865"/><path d="m809 1182c-45-3-90-18-128-43-31-21-54-44-77-80-43-65-52-152-25-227 14-39 35-72 65-101 42-41 95-66 154-73 12-1 48-1 60 0 59 7 111 32 154 73 30 29 51 62 65 102 23 66 19 138-11 201-8 17-17 30-36 55-5 7-27 28-37 36-36 29-78 48-124 55-11 2-38 4-44 4-2 0-8 0-15-1zm50-44c33-5 63-16 90-35 27-18 55-49 71-77 12-22 21-47 26-75 2-13 2-50 0-63-10-67-47-124-104-159-35-22-74-33-116-33-59 0-112 22-154 62-44 42-68 99-68 159 0 51 18 101 49 139 10 12 12 14 26 27 15 14 31 25 50 34 26 12 48 19 79 22 8 1 41 0 50-2zm-69-88c-20-2-35-9-46-20-9-9-13-17-16-30-3-12-3-20-4-88 0-65 1-60-9-62-5-1-9-4-8-6 1-1 66-1 66 0 0 0 0 2-1 3-1 1-3 2-8 3-4 1-7 2-9 3l-3 2 0 58c0 62 0 73 4 86 6 20 25 30 56 30 28 0 47-9 54-25 6-12 6-13 6-98 1-80 1-81 4-88 2-5 7-9 12-12 5-2 5-3 29-3 13 0 26-1 27 0 2 0 3 1 3 3 0 3-2 4-10 5-3 0-8 1-10 2-7 3-6-2-6 88 0 53 0 83-1 89-2 17-8 30-20 41-12 11-25 17-46 19-16 1-55 2-66 0z" fill="#f8b661"/><path d="m801 1182c-48-6-85-19-121-43-30-20-54-45-77-80-43-67-53-155-24-231 28-74 87-132 160-157 76-26 157-17 226 25 22 13 51 39 66 59 64 81 75 191 30 282-11 22-32 51-50 68-40 40-89 65-148 75-9 1-55 3-63 2zm58-43c35-6 69-19 97-40 12-9 36-33 47-46 29-36 45-85 45-134 0-30-5-56-16-82-12-30-29-55-53-78-28-27-61-46-98-55-18-5-27-6-49-6-24-1-38 1-59 6-18 4-29 9-46 17-52 26-92 72-111 127-9 26-12 49-12 78 1 32 7 57 19 86 13 29 30 51 61 79 13 12 40 28 62 36 16 6 37 11 57 14 10 1 44 0 55-1zm-69-88c-13-1-22-4-32-9-13-7-24-20-29-34-5-13-5-13-5-84-1-77 0-70-9-73-6-2-8-3-8-5 0-2 1-2 33-2l33 0 0 2c0 2-4 4-11 5-2 0-5 2-6 3l-3 3 0 59c0 62 1 72 5 85 6 18 20 27 47 30 15 2 34-1 46-7 7-3 14-10 17-18 6-12 6-12 6-98 1-79 1-82 4-89 2-5 7-9 12-12 5-2 6-2 29-3 14 0 26-1 27 0 2 0 2 1 2 3 0 3-3 4-11 5-7 1-12 3-14 5-1 2-1 22-2 88 0 78-1 87-2 93-4 18-16 34-31 43-8 4-20 8-33 9-17 2-53 2-65 0z" fill="#f8b45d"/><path d="m795 1181c-55-7-105-30-146-67-27-24-53-61-66-95-33-82-24-174 25-247 20-29 44-54 73-73 89-59 204-59 293 0 103 69 145 202 98 317-7 17-13 29-24 45-15 23-28 38-44 53-39 35-85 57-138 65-14 2-55 3-69 1zm67-43c15-3 30-7 41-11 19-7 43-20 57-32 16-13 42-41 53-57 18-27 30-63 34-97 2-17 1-46-2-61-9-47-29-85-61-118-18-18-36-31-60-43-32-16-62-23-97-23-26 0-46 3-69 11-32 11-61 28-85 52-38 37-60 83-66 135-1 11-1 36 0 47 4 34 16 67 34 96 12 18 40 48 58 60 29 21 61 34 96 39 15 2 16 2 37 2 15 0 23-1 31-2zm-72-88c-21-2-35-9-47-20-11-11-17-24-19-43 0-4-1-35-1-68 0-36 0-61-1-63-1-3-5-5-10-6-5-1-6-2-6-5 0-2 1-2 33-2l33 0 0 2c0 2-4 4-11 5-2 0-5 2-6 3l-3 3 0 59c0 63 0 71 5 84 6 18 19 27 47 30 11 1 24 0 35-4 16-5 25-12 29-25 4-12 5-22 5-99 0-72 0-73 2-79 3-8 7-13 14-17 5-3 6-3 30-3 13 0 25-1 27 0 2 1 3 3 1 5-1 1-5 2-10 2-5 1-9 2-10 2-5 3-5 2-5 87 0 50 0 83-1 88-4 34-25 56-58 60-24 3-53 4-73 1z" fill="#f8b259"/><path d="m795 1181c-56-7-105-30-147-68-18-17-39-44-54-70-12-22-23-52-27-79-5-31-5-67 1-97 8-40 27-80 53-113 13-17 36-37 55-51 53-38 124-54 190-44 57 9 109 36 149 77 73 75 94 186 54 283-14 33-40 71-66 95-40 36-86 57-139 66-14 2-55 3-69 1zm65-42c37-6 73-22 101-43 9-7 30-28 38-38 24-29 38-60 46-100 2-12 2-14 3-38 0-28-1-34-6-54-6-23-18-50-30-69-36-55-92-89-157-98-12-2-42-2-53 0-76 10-139 54-172 120-11 21-16 38-21 62-3 17-4 48-2 66 6 43 22 81 48 112 9 11 29 30 38 37 30 23 70 39 111 44 11 1 47 0 58-1zm-69-88c-13-1-20-3-29-7-15-7-26-18-32-34-5-14-5-14-6-86 0-56-1-67-2-68-2-2-5-4-9-5-4-1-6-2-6-4 0-2 1-2 33-2l33 0 0 2c0 2-4 4-11 5-2 0-5 2-6 3l-3 3 0 59c0 58 0 66 3 80 4 16 14 27 31 31 27 7 59 2 73-12 8-8 12-18 13-37 0-4 1-40 1-78 0-64 0-71 2-75 3-9 8-15 16-18 5-2 54-4 56-2 3 3 0 5-8 6-12 2-14 3-16 6-2 3-2 5-2 82 0 49 0 83-1 89-4 34-25 57-59 61-28 3-50 4-71 1z" fill="#f7b258"/><path d="m803 1182c-12-1-26-4-33-5-49-11-94-35-130-71-6-6-13-14-15-17-3-3-7-9-10-14-26-34-42-72-49-118-2-15-2-60 0-75 8-48 26-91 56-127 8-10 29-32 40-40 59-47 135-67 208-55 44 7 85 25 121 53 11 8 33 30 42 41 19 24 35 53 44 81 18 54 18 112 1 166-9 28-22 52-40 76-4 5-8 10-9 12-4 5-25 27-36 35-37 29-78 48-125 55-9 2-17 2-36 2-13 0-25 0-27 0zm45-42c42-5 81-20 112-44 9-7 28-26 38-38 22-26 36-56 44-91 4-17 4-23 4-48 0-21 0-26-2-36-17-97-93-170-191-183-15-2-42-2-57 0-49 7-94 29-128 63-33 33-54 74-62 120-3 15-3 48-1 64 5 36 18 70 36 97 13 18 39 45 55 57 32 23 68 36 109 41 7 1 35 1 43 0zm-58-90c-31-3-52-17-61-40-6-15-6-14-6-87l-1-67-3-2c-1-1-4-2-5-3-5-1-9-3-9-5 0-2 1-2 33-2l33 0 0 2c0 2-4 4-11 5-2 0-5 2-6 3l-3 3 0 64c0 71 1 74 7 86 5 11 14 17 28 21 27 7 59 2 73-12 6-6 9-13 11-23 2-11 3-47 3-92 0-21 0-46 0-56 1-18 1-19 3-25 3-7 7-11 14-14 4-2 7-2 29-3 25-1 28 0 28 2 0 2-2 3-11 5-5 1-9 2-10 2-5 3-5 0-5 86 0 49 0 83-1 89-3 34-25 57-58 61-26 3-51 4-72 1z" fill="#f8b156"/><path d="m796 1181c-71-8-136-45-177-101-6-8-13-18-16-22-19-30-31-63-37-101-2-15-2-60 0-75 8-49 26-91 56-128 8-10 29-32 40-40 68-54 157-72 239-48 32 9 65 27 92 48 10 8 32 30 40 40 29 37 48 80 56 127 2 16 3 61 0 76-7 46-23 84-49 118-3 4-8 10-10 14-3 3-9 11-15 17-42 42-97 68-157 75-15 2-45 2-60 0zm54-41c39-4 78-20 109-43 10-7 30-28 40-40 25-30 42-70 47-110 2-14 2-42 0-57-10-77-59-143-130-175-44-20-96-24-142-13-78 19-140 78-162 156-6 22-7 32-7 61 0 24 0 27 3 38 8 39 22 71 46 99 10 12 31 33 40 40 30 23 70 39 107 43 11 1 38 1 49 0zm-59-89c-31-3-52-17-61-41-6-15-6-14-6-87l-1-67-2-2c-1-1-5-3-8-4-5-1-6-2-6-4l0-2 33 0c32 0 33 0 33 2 0 2-2 3-10 5-4 1-6 2-8 4l-3 3 0 64c0 61 0 64 2 73 4 19 14 29 32 34 16 4 30 5 47 1 21-5 33-16 37-35 2-11 4-51 3-90 0-20 0-45 0-56 1-19 1-21 3-26 3-7 7-11 13-14 5-3 5-3 30-3 24-1 28 0 28 2 0 2-2 3-9 4-10 1-13 3-15 5-1 2-2 9-2 88-1 93-1 91-6 104-7 19-23 33-44 38-15 4-59 6-81 3z" fill="#f7b055"/><path d="m796 1181c-55-7-104-29-146-66-18-16-31-32-52-64-4-6-13-25-17-36-8-20-13-43-16-67-2-16-1-53 1-67 8-48 26-91 55-127 8-10 29-32 40-40 20-16 46-31 69-40 46-18 99-23 149-13 39 8 80 27 113 53 10 8 31 29 40 40 29 37 48 79 56 128 2 15 2 60 0 75-6 39-18 71-37 101-9 15-27 37-37 47-38 38-85 63-138 73-23 4-56 5-78 3zm54-41c31-3 66-15 92-31 15-9 24-16 37-30 23-23 35-39 47-63 15-31 22-61 22-96 0-26-3-47-11-70C998 732 871 669 754 709c-69 24-122 80-142 151-6 21-7 31-7 59 0 28 1 34 7 56 8 31 22 58 42 82 10 12 31 33 40 40 30 23 70 39 107 43 11 1 38 1 49 0zm-59-90c-37-4-58-21-65-54-1-6-2-15-2-74l-1-67-2-2c-1-1-5-3-8-4-5-1-6-2-6-4l0-2 33 0c32 0 33 0 33 2 0 2-2 3-10 5-4 1-6 2-8 4l-3 3 0 64c0 61 0 64 2 73 5 20 14 29 34 35 16 4 32 4 49-1 16-4 26-13 31-26 4-11 4-21 5-97 0-44 1-75 1-77 2-11 11-20 21-22 6-1 49-2 51-1 2 1 1 3 0 4-1 1-4 1-8 2-10 1-13 3-15 5-1 2-2 9-2 88 0 77-1 87-2 93-7 30-27 48-57 52-25 3-49 4-71 1z" fill="#f7b052"/><path d="m797 1181c-71-8-136-44-177-98-32-41-47-77-55-124-3-17-3-51-1-69 7-61 32-114 75-156 44-44 97-70 160-77 12-1 42-1 54 0 44 5 83 19 119 43 16 11 26 19 40 33 41 40 65 89 75 148 2 14 3 51 1 67-4 32-11 58-25 86-5 11-7 13-17 29-21 32-45 56-74 75-36 24-74 37-117 42-15 2-43 2-58 0zm56-41c39-5 73-19 105-42 13-9 29-26 42-41 23-28 38-61 44-97 16-87-21-176-95-225-21-14-40-23-62-29-78-22-160-1-218 56-32 32-53 72-62 118-3 17-4 49-2 67 3 24 10 47 21 69 12 24 24 41 47 63 13 13 23 21 37 29 27 17 59 28 91 31 12 1 40 1 52 0zm-62-89c-37-4-58-21-66-54-1-6-2-15-2-74l-1-67-2-2c-1-1-5-3-8-4-5-1-6-2-6-4l0-2 33 0c32 0 33 0 33 2 0 2-2 3-8 4-6 1-10 3-12 6-1 2-1 19-1 62 0 56 0 61 2 71 4 24 13 34 35 39 16 4 32 4 49-1 17-5 27-14 31-29 3-12 4-21 4-97l1-75 2-5c3-7 7-11 13-14 5-3 5-3 30-3 25 0 29 0 29 2 0 2-2 3-9 4-9 1-12 2-15 5-2 2-2 6-2 88 0 78-1 87-2 93-7 28-25 46-53 51-21 4-51 5-75 2z" fill="#f7ae51"/><path d="m805 1182c-12-1-27-4-36-6-58-13-113-47-147-92-34-44-51-85-57-136-2-18-1-51 1-69 11-70 48-130 104-172 48-36 110-54 170-51 66 4 125 30 171 76 42 41 66 90 76 150 2 15 2 59 0 74-8 49-23 85-55 127-33 43-87 78-143 92-20 5-34 7-59 7-12 0-24 0-26 0zm59-43c38-7 73-23 100-45 16-13 39-38 49-53 8-13 20-37 25-51 8-24 11-44 11-70 0-54-18-104-54-146-36-41-85-68-141-75-11-2-42-2-53 0-30 4-58 13-82 27-62 36-103 97-112 168-1 12-1 38 0 50 5 39 21 81 43 108 39 49 84 76 140 86 15 3 16 3 41 2 18 0 25-1 33-2zm-71-88c-41-4-63-25-67-65-1-5-1-34-1-68 0-43 0-60-1-62-1-3-3-4-10-6-4-1-6-2-6-4l0-2 33 0c23 0 33 1 33 1 1 2-2 4-7 5-6 1-11 3-12 6-2 4-1 119 0 131 3 16 6 24 14 31 13 12 43 17 69 10 19-5 29-14 34-30 3-12 4-20 4-96l1-76 3-6c3-7 8-11 14-14 6-2 55-3 56-1 1 3-1 4-10 5-4 1-9 2-11 2-5 3-5-3-6 91-1 96 0 93-7 108-9 19-24 31-44 36-15 3-57 5-78 3z" fill="#f7ad4d"/><path d="m802 1181c-50-5-95-22-134-52-13-10-36-32-43-41-3-4-7-9-9-12-27-35-43-74-50-120-2-15-3-49-1-66 9-74 45-138 105-183 35-26 73-42 119-49 8-1 16-2 38-2 29 0 36 1 59 6 91 20 166 90 194 181 14 47 14 101 1 148-17 61-61 118-115 152-43 26-90 39-140 39-8 0-19 0-23-1zm60-43c36-6 70-20 97-41 16-12 40-37 51-53 32-45 45-106 36-161-8-46-29-88-62-120-67-67-167-84-252-44-61 29-106 84-122 151-5 23-7 56-4 78 5 35 17 68 36 96 6 9 20 25 31 36 19 18 34 29 57 40 21 10 44 17 66 20 13 2 52 1 65-1zm-68-88c-20-2-33-6-45-16-13-10-21-27-24-50-1-5-1-36-1-68 0-65 0-64-5-66-1-1-4-1-7-2-4-1-6-3-4-5 1-1 64-1 65 0 1 2-2 4-7 5-6 1-11 3-12 5-1 1-1 22-1 62 0 51 0 62 1 70 3 16 6 24 13 30 20 19 72 19 92 0 5-5 10-13 11-20 3-13 3-20 4-94 1-67 1-76 2-80 3-8 9-14 17-17 2-1 11-1 29-2 23 0 26 0 26 1 1 3-1 4-10 5-4 1-9 2-11 2-6 3-5-2-5 82 0 96 0 102-8 118-8 18-22 29-42 34-14 4-56 5-78 3z" fill="#f7ac4a"/><path d="m801 1181c-11-1-33-5-44-8-33-9-69-27-95-48-32-26-64-69-79-106-10-25-16-49-19-77-1-14-1-47 1-61 9-59 34-109 75-150 40-40 89-64 148-74 15-2 60-2 75 0 44 7 83 23 116 47 61 45 99 109 108 185 2 17 1 50-1 66-5 29-12 53-24 78-15 32-44 68-70 89-47 39-107 60-169 59-8 0-18 0-23-1zm53-42c38-5 74-20 104-42 17-12 41-38 53-55 36-53 46-121 29-184-17-61-60-111-116-139-22-11-42-17-67-21-15-2-46-2-61 0-49 7-92 29-126 63-39 39-61 87-65 143-4 48 11 101 38 140 11 16 35 41 51 53 30 22 66 37 103 42 13 2 44 2 57 0zm-61-89c-15-1-24-4-34-9-19-10-29-23-34-47-1-6-2-17-2-72 0-45-1-66-1-68-1-3-4-5-9-6-4-1-7-3-6-5 1-1 64-1 65 0 1 2-3 4-8 5-6 1-10 3-11 5-1 1-1 22-1 63 0 57 0 61 2 71 3 15 5 20 12 27 7 6 12 10 24 13 20 5 44 3 60-5 9-5 17-14 20-24 3-11 4-19 4-95l1-76 2-5c2-6 8-12 13-14 6-3 13-3 36-3 19 0 22 0 22 1 1 3-2 4-10 5-4 1-9 2-11 2-5 3-5-2-6 91-1 92 0 92-6 105-9 23-28 37-55 40-25 3-45 3-67 1z" fill="#f7aa48"/><path d="m803 1181c-22-2-47-8-67-15-24-9-54-26-74-41-21-17-43-42-59-68-15-23-26-49-33-77-8-35-9-77-2-113 19-95 89-172 182-200 40-12 87-14 129-6 94 19 172 91 199 182 7 24 10 42 11 68 1 39-5 71-19 108-15 37-47 80-79 106-30 24-70 43-108 51-22 5-58 7-79 5zm36-40c45-3 86-18 120-44 16-12 41-39 52-55 31-47 44-105 34-160-9-52-36-99-78-135-24-20-57-37-89-45-19-5-31-6-53-6-37 0-65 7-97 22-64 31-109 91-121 160-10 56 2 115 34 162 11 17 36 43 53 55 34 25 75 41 117 43 6 0 12 1 13 1 1 0 8 0 16-1zm-45-90c-15-1-23-3-34-9-21-10-32-28-35-57-1-6-1-33-1-69 0-63 0-62-5-65-1-1-4-1-6-2-4-1-7-4-6-5 1-1 13-1 33-1 27 0 32 0 32 2 0 2-4 4-10 5-3 1-6 2-8 3-2 2-2 2-3 49-1 82 1 100 13 113 6 6 13 10 25 13 12 3 33 3 45 0 17-4 26-11 32-23 6-12 6-16 7-102l1-76 2-5c3-7 8-12 14-15 5-2 6-2 31-3 23 0 26 0 26 1 1 3-1 4-11 5-8 1-10 2-12 4l-2 3-1 86c-1 92-1 93-6 105-4 9-8 16-14 22-14 14-25 18-62 20-16 1-27 1-45-1z" fill="#f7aa46"/><path d="m803 1181c-53-5-98-23-139-55-27-21-57-58-73-90-12-25-21-52-25-82-3-17-2-56 0-74 15-96 77-172 166-207 46-18 98-22 148-12 102 21 184 102 204 205 7 36 7 78-2 113-6 25-18 55-28 70-2 3-5 8-8 12-9 14-25 33-37 45-41 40-92 64-148 72-13 2-47 3-59 1zm38-40c40-3 76-15 108-37 22-15 49-42 64-64 19-28 30-60 34-94 2-12 2-41 0-53-10-77-56-141-125-174-82-40-180-24-247 38-30 28-53 67-63 106-16 62-5 127 30 180 8 11 24 30 37 42 35 32 82 53 131 56 16 1 16 1 31 0zm-46-90c-16-1-23-3-34-9-22-11-33-28-36-58-1-5-1-35-1-69l0-59-2-2c-2-2-8-4-11-4-2 0-4-4-4-5 1-1 64-1 65 0 1 2-3 4-8 5-6 1-10 3-11 5-2 3-2 88-1 114 1 28 4 37 13 47 6 6 13 10 25 13 12 3 33 3 45 0 18-5 28-13 34-26 4-11 5-18 5-99 1-71 1-77 2-81 2-6 9-13 15-16 5-2 6-2 30-3 23 0 26 0 26 1 1 3-1 4-11 5-9 1-10 2-12 5l-3 3 0 51c0 28 0 68-1 88-1 35-1 37-3 45-3 11-8 19-17 28-9 9-17 13-30 16-15 4-54 5-76 3z" fill="#f7a944"/><path d="m803 1181c-60-5-116-31-160-73-7-7-14-14-16-17-2-3-6-8-8-11-6-8-22-32-27-42-14-28-24-63-27-97-1-16-1-44 2-61 17-110 99-197 209-219 32-6 72-6 103 0 52 10 98 35 135 72 40 40 65 90 74 148 3 18 3 57 0 74-7 46-22 83-48 119-13 18-17 23-30 35-55 53-130 80-206 73zm52-42c44-6 86-25 119-55 12-11 15-15 27-28 19-23 35-57 42-88 11-50 5-99-16-144-44-92-144-142-243-123-78 15-143 72-168 148-8 24-11 45-11 70 0 24 2 41 9 63 8 26 23 55 38 73 12 15 15 18 27 29 36 34 84 54 136 57 9 1 30 0 42-2zm-61-89c-24-2-38-8-51-21-12-12-17-25-19-46-1-5-1-36-1-69l0-59-2-2c-2-2-8-4-11-4-2 0-4-4-4-5 1-1 64-1 65 0 1 2-3 4-8 5-7 1-11 3-12 8-1 4-1 95 0 115 1 24 5 35 13 44 6 6 13 10 25 13 12 3 33 3 45 0 18-5 28-12 34-26 4-11 5-18 5-99 1-86 0-81 8-90 7-8 10-9 40-9 23 0 26 0 26 1 1 3-1 4-11 5-9 2-12 3-14 7-1 1-1 31-1 86 0 79 0 85-2 93-3 14-8 23-18 33-9 9-17 14-30 17-16 4-53 5-76 3z" fill="#f7a842"/><path d="m804 1181c-52-4-102-24-142-57-30-24-61-65-77-100-25-58-29-125-10-185 22-68 69-124 132-155 38-19 76-28 119-28 122 0 228 83 256 202 6 25 8 58 6 83-3 34-13 69-27 97-5 10-21 34-27 42-2 3-6 8-8 10-5 7-25 26-35 34-52 42-120 62-187 57zm54-42c35-5 67-18 96-38 19-13 45-41 58-61 7-11 18-32 22-44 12-34 16-72 11-108-12-83-70-153-149-179-24-8-43-11-71-11-22 0-33 1-52 6-56 13-107 50-138 100-42 68-44 156-4 226 11 19 21 31 41 51 19 18 37 31 60 41 39 18 82 24 125 18zm-63-89c-25-2-39-7-52-21-12-12-17-24-19-46-1-6-1-33-1-69 0-40 0-59-1-60-1-2-8-5-11-5-2 0-6-3-5-5 1-1 64-1 65 0 1 2-3 4-8 5-7 1-11 3-12 8-1 4-1 99 0 116 2 23 5 34 14 43 9 9 23 14 43 14 19 1 36-3 46-11 10-7 14-16 17-32 1-4 1-32 2-83 1-74 1-77 2-81 2-6 8-12 13-15 5-3 18-4 40-3 12 0 18 1 18 1 1 2-2 4-7 5-13 2-17 4-19 11 0 2-1 41-1 86 0 76 0 83-2 90-3 14-9 26-20 35-13 12-26 16-61 19-18 1-23 1-43 0z" fill="#f7a740"/><path d="m810 1182c-35-3-62-10-90-22-49-22-86-54-117-103-20-31-33-68-38-107-2-15-2-51 1-65 8-52 27-96 59-134 9-11 30-31 41-40 36-28 77-45 124-52 15-2 57-2 72 0 32 5 55 12 82 26 28 14 48 29 70 52 37 38 61 84 70 136 9 51 3 103-16 150-15 36-47 78-78 103-38 30-83 49-131 55-11 1-42 3-50 2zm32-41c42-3 82-18 115-42 18-14 44-41 57-60 7-11 18-34 23-47 8-24 12-45 12-72 0-24-2-39-8-61-17-61-60-113-118-141-41-20-88-26-135-18-85 15-156 81-177 167-10 42-8 88 7 129 4 12 15 33 22 44 12 19 40 48 58 61 32 23 71 37 111 41 14 1 21 1 34 0zm-44-90c-16-1-28-4-39-9-14-7-27-22-31-37-4-14-4-17-5-84l-1-65-2-2c-1-1-4-2-7-3-5-1-8-3-7-5 1-1 64-1 65 0 1 2-3 4-8 5-3 0-6 1-8 2-5 3-5 3-5 60 0 53 1 69 3 82 4 19 14 29 35 35 11 3 35 3 46 0 15-4 23-9 29-17 9-13 10-22 10-109 0-47 0-70 1-74 2-10 7-17 14-21 5-2 17-3 40-4 15 0 18 0 18 1 1 2-2 4-10 5-9 1-13 3-15 7-1 2-1 19-2 90 0 81-1 88-2 93-7 26-26 43-52 48-6 1-41 4-49 4-3 0-12-1-19-1z" fill="#f6a53d"/><path d="m806 1181c-27-2-53-8-79-19-20-8-48-24-66-39-9-7-32-30-36-35-1-2-5-7-9-12-18-24-31-48-40-76-7-23-11-46-12-72-3-71 24-140 74-191 42-43 93-69 153-78 16-2 55-2 71 0 48 7 92 26 128 55 10 8 28 26 38 37 31 37 52 85 59 134 9 68-9 137-50 192-4 5-8 10-9 12-1 2-6 7-11 12-54 57-133 87-211 81zm50-42c37-5 72-19 101-41 10-7 31-27 41-40 12-14 19-25 27-42 16-33 24-69 23-105-2-59-26-111-68-152-34-33-75-53-122-61-15-2-49-2-64 0-38 6-72 20-102 43-17 13-38 35-49 52-40 58-49 132-26 199 4 13 16 35 23 46 12 18 39 47 56 60 34 25 72 39 118 42 8 1 34 0 43-2zm-56-89c-26-2-42-8-55-20-12-11-18-26-20-49-1-6-1-37-1-68l0-57-2-2c-1-1-4-3-7-4-6-2-9-4-7-5 2-1 62-1 64 0 2 2-1 4-8 5-5 1-8 2-9 4l-2 2 0 54c0 68 1 82 7 96 2 3 5 8 7 10 18 18 67 20 90 3 6-4 12-13 14-20 3-12 4-18 4-95l1-77 2-6c3-7 9-14 16-16 4-1 10-2 30-2 22-1 25 0 26 1 1 3-2 4-10 5-10 1-12 2-14 6-2 2-2 8-2 90 0 59-1 89-2 91-5 19-16 35-32 43-11 6-20 8-46 10-21 1-23 1-42 0z" fill="#f6a439"/><path d="m807 1181c-53-4-103-24-145-57-12-10-31-28-38-38-25-33-36-52-46-81-19-53-19-114-1-168 13-40 34-73 64-103 22-22 43-37 70-51 91-45 197-34 279 29 12 9 36 34 45 45 38 50 57 109 55 170-1 27-5 50-13 74-9 28-21 51-39 74-4 5-8 10-9 12-3 5-27 28-36 35-21 17-52 34-77 43-34 12-72 17-108 15zm38-40c43-4 82-19 115-44 17-13 42-39 54-58 8-12 19-35 24-50 18-56 14-118-13-171-18-35-45-65-78-87-47-31-105-42-162-32-34 6-66 20-95 42-11 8-30 27-39 39-24 31-40 67-46 106-2 14-2 46 0 59 5 34 16 65 33 92 12 18 37 45 54 59 42 32 98 48 151 44zm-44-90c-15-1-21-2-32-6-16-6-29-16-36-30-8-17-9-28-9-103l0-56-2-2c-1-1-4-3-7-4-6-2-9-4-7-5 2-1 62-1 64 0 3 2-1 4-8 5-5 1-8 2-9 4l-2 2 0 55c0 56 0 71 3 84 5 24 22 35 54 36 11 0 15 0 23-2 24-5 36-16 40-38 1-7 2-18 2-86l1-77 2-6c3-7 9-14 16-16 4-1 10-2 30-2l25-1 0 2c0 3-1 3-11 4-8 1-12 3-13 6-1 2-1 21-2 89 0 86-1 87-3 95-6 22-22 39-42 45-9 3-15 3-35 5-21 1-22 1-40 0z" fill="#f6a338"/><path d="m813 1182c-26-2-42-5-60-10-32-9-64-26-91-47-40-32-74-82-88-130-24-83-7-172 47-239 8-10 30-33 41-41 37-30 79-48 127-55 11-2 18-2 37-2 25 0 33 1 53 5 40 8 76 24 110 50 11 8 35 32 44 43 58 73 73 169 41 256-4 12-15 34-21 43-21 32-39 53-61 71-39 31-87 51-135 56-10 1-36 2-43 1zm45-42c37-5 75-21 104-44 14-11 37-36 49-52 18-24 32-62 37-96 2-13 2-48-1-61-8-49-30-92-64-126-29-28-68-50-107-59-18-4-26-5-49-5-29 0-47 3-72 11-70 24-125 83-144 155-17 68-1 141 43 194 9 11 28 30 38 37 32 25 73 41 116 45 11 1 39 0 51-1zm-48-88c-23-1-29-2-38-5-26-9-40-25-45-54-1-7-2-19-2-73l0-64-3-3c-2-2-4-3-7-3-2 0-5-1-6-2-2-1-2-2-1-3 2-1 60-1 63 0 3 1 0 4-7 5-7 1-10 3-12 7-2 3-2 108 0 123 3 27 9 38 25 45 11 5 23 7 39 7 28-1 44-9 52-26 6-12 6-15 6-99 1-85 0-82 6-90 7-9 11-10 41-11 23-1 24-1 25 1 1 3-2 4-10 5-8 1-13 3-14 6-1 2-1 21-2 89 0 87-1 87-3 95-3 9-8 20-14 27-9 10-21 17-36 20-7 1-44 4-51 4-2 0-5 0-7 0z" fill="#f6a236"/><path d="m807 1181c-64-5-121-32-166-76-19-19-40-48-51-72-44-91-32-199 32-278 8-10 30-32 41-41 37-29 79-48 127-55 19-3 56-3 75 0 48 7 90 26 127 55 10 8 32 30 41 41 54 67 71 156 47 239-14 48-48 98-88 130-38 31-87 51-135 56-13 1-37 2-49 1zm38-40c43-4 85-20 117-45 17-13 43-42 53-58 24-38 35-81 34-126-1-33-8-62-23-91-32-66-93-110-167-122-13-2-50-2-63 0-41 6-78 22-110 48-37 30-64 72-76 118-5 21-6 31-6 55 0 28 3 47 11 71 6 18 17 41 27 54 12 16 35 41 49 52 42 33 100 50 154 45zm-42-90c-15-1-24-2-32-5-21-7-34-20-41-40-5-13-5-18-5-87l0-64-3-2c-2-1-5-3-7-3-2 0-5-1-6-3-2-2-2-2 0-3 2-1 60-1 63 0 3 1 0 4-7 5-7 1-10 3-12 7-1 2-1 16-1 58 0 55 0 67 3 81 4 18 14 28 34 34 6 2 10 2 24 2 14 0 17 0 24-2 21-6 31-16 35-37 1-7 2-18 2-85 1-85 0-82 7-91 7-9 11-10 41-11 23-1 24-1 25 1 1 3-2 4-10 5-8 1-13 3-14 6-1 2-1 21-2 89 0 86-1 87-3 95-3 9-8 20-14 27-9 10-21 17-36 20-6 1-45 4-51 4-1 0-8 0-15-1z" fill="#f6a234"/><path d="m812 1182c-52-3-102-21-143-52-26-20-44-39-64-70-54-82-55-192-3-277 20-32 48-62 79-83 95-63 220-57 310 14 11 9 32 30 41 41 52 65 70 150 48 231-9 34-24 63-47 95-11 14-18 22-29 32-41 37-90 60-145 67-11 1-37 2-46 2zm33-41c41-4 77-17 111-41 11-8 34-30 44-43 24-30 40-66 47-106 2-13 3-40 1-53-5-53-28-100-64-137-36-36-83-59-134-64-11-1-36-1-47 0-77 9-143 55-177 124-10 21-17 42-20 66-2 15-2 49 0 64 6 38 22 76 44 103 11 13 36 38 47 46 43 31 97 45 148 41zm-57-91c-33-4-53-21-61-49-3-13-4-35-4-94l0-51-2-2c-2-2-5-3-11-5-1 0-3-1-4-2-1-2-1-2 31-2 30 0 32 0 32 2 0 1-2 2-8 3-5 1-8 2-10 4l-3 3 0 63c0 61 0 63 2 73 3 13 6 19 12 25 6 6 12 9 23 12 6 2 10 2 24 2 14 0 18 0 24-2 16-4 25-11 30-22 6-13 6-13 7-100 1-70 1-78 2-83 2-7 7-12 13-16 5-3 6-3 18-4 7 0 19-1 26-1 11 0 13 0 14 1 1 2-2 4-9 5-9 1-14 3-16 7-1 3-1 15-1 85 0 86 0 91-4 102-7 21-24 36-45 41-16 4-62 5-83 3z" fill="#f6a032"/><path d="m808 1181c-63-4-123-32-167-76-6-6-12-13-15-16-13-17-16-21-23-32-42-66-51-152-23-228 9-24 26-54 41-73 27-33 61-59 99-76 29-13 57-20 90-22 41-3 83 5 121 21 74 32 130 98 150 176 14 54 10 111-11 163-13 34-39 71-65 94-47 42-101 66-163 70-16 1-17 1-34 0zm38-40c36-3 70-15 99-33 19-12 36-27 53-47 4-4 7-9 8-9 1-1 4-5 7-10 19-30 31-64 35-100 1-13 1-42-1-55-9-58-40-109-85-144-40-30-85-45-135-45-35 0-66 7-97 22-45 22-80 57-102 102-10 21-17 41-21 66-2 15-2 50 0 65 6 41 22 76 47 106 10 12 32 34 42 41 43 32 98 47 151 42zm-57-91c-40-5-62-27-64-68 0-5-1-36-1-68l0-58-2-2c-1-1-5-3-8-4-4-1-6-2-6-3 0-1 2-2 32-2 27 0 32 0 32 1 0 1-4 3-10 4-6 1-9 3-10 6-1 4-1 112 0 124 3 30 11 41 34 48 7 2 11 3 22 3 33 1 54-9 61-29 4-12 4-15 5-95 1-70 1-78 2-82 2-7 7-12 13-16 5-3 6-3 20-4 26-1 37-1 38 1 1 2-1 3-9 5-10 2-13 3-15 7-2 3-2 9-2 85 0 51 0 84-1 89-4 32-25 53-56 57-21 3-55 4-74 1z" fill="#f6a030"/><path d="m801 1181c-47-6-83-18-119-42-25-16-46-36-63-59-6-8-12-17-14-20-2-3-4-7-5-8-4-5-12-22-17-35-9-21-14-42-17-66-2-15-2-46-1-60 7-61 33-115 76-158 14-14 24-22 39-32 19-13 37-22 58-29 87-31 181-14 253 43 10 8 31 29 39 39 47 59 67 135 55 208-5 31-18 67-31 88-2 3-5 8-7 12-8 13-25 33-35 44-40 40-89 65-147 74-9 1-55 3-63 2zm58-41c37-6 72-20 101-43 10-8 28-25 39-38 24-29 41-67 48-106 2-13 2-51 1-64-4-25-10-46-21-67-14-29-31-51-55-71-30-26-68-44-108-51-15-3-45-4-61-2-95 10-173 80-194 173-5 20-6 51-4 70 4 37 16 70 35 100 3 5 6 10 7 10 1 1 4 5 7 9 8 10 28 29 37 36 33 25 71 40 113 45 11 1 43 0 55-1zm-69-90c-39-4-60-25-64-61-1-5-1-32-1-68 0-39 0-61-1-64-1-4-3-5-10-7-3-1-5-2-5-3 0-1 2-2 32-2 27 0 32 0 32 1 0 1-5 3-8 3-4 0-10 3-11 6-2 4-2 113 0 129 2 18 6 27 14 34 5 5 10 7 20 10 17 5 36 5 53 0 19-6 29-16 33-35 1-7 2-16 2-85 1-71 1-78 2-82 3-10 10-16 19-19 2-1 14-1 27-2 22-1 24-1 24 1 1 3-1 3-10 5-10 2-12 2-14 6-2 2-2 9-2 89-1 86-1 87-3 94-5 19-17 34-33 42-8 4-18 6-30 8-17 2-53 2-65 0z" fill="#f6a02f"/><path d="m801 1181c-47-6-83-18-119-42-25-16-46-36-63-59-21-28-31-47-40-73-11-30-15-55-15-87 0-21 1-32 5-51 10-51 35-98 72-136 14-14 24-22 39-32 19-13 37-22 58-29 87-31 181-14 253 43 10 8 30 28 39 39 47 58 67 135 55 208-5 31-18 67-31 88-2 3-5 8-7 12-8 13-25 34-35 44-40 40-89 65-147 74-9 1-55 3-63 2zm58-41c37-6 72-20 101-43 10-8 28-26 39-38 21-25 37-58 44-91 7-34 7-72-1-104-7-29-23-61-41-83-30-37-69-64-115-76-22-6-32-7-60-7-22 0-27 0-37 2-71 13-130 57-162 121-10 21-17 42-21 66-2 15-2 51 0 66 4 26 12 49 23 70 5 10 15 26 18 29 1 1 4 5 7 9 8 10 28 29 37 36 33 25 71 40 113 45 11 1 43 0 55-1zm-69-90c-33-4-54-20-62-48-3-11-3-21-3-82 0-39 0-61-1-64-1-4-3-5-10-7-3-1-5-2-5-3 0-1 2-2 32-2 27 0 32 0 32 1 0 1-5 3-8 3-4 0-10 3-11 6-2 4-2 113 0 129 2 18 6 27 14 34 5 5 10 7 20 10 17 5 36 5 53 0 19-6 29-16 33-35 1-7 2-16 2-85 1-71 1-78 2-82 3-10 10-16 19-19 2-1 14-1 27-2 22-1 24-1 24 1 1 3-1 3-10 5-5 1-10 2-11 3-5 3-5 2-5 88 0 52 0 83-1 88-3 27-19 47-42 55-16 5-60 8-87 5z" fill="#f69f2e"/><path d="m796 1180c-58-7-110-32-152-73-24-23-47-56-59-84-21-50-27-103-16-156 7-36 24-73 46-104 36-49 88-83 146-98 80-20 165-2 229 50 12 10 30 28 40 40 56 70 73 165 43 250-6 17-16 38-22 47-1 1-4 6-8 11-26 40-60 70-101 91-28 14-56 22-88 26-15 2-46 2-60 0zm53-39c58-6 108-33 148-78 17-19 28-38 37-61 12-29 16-55 15-89-1-21-2-30-7-50-22-84-90-147-175-163-88-16-178 22-227 97-17 25-28 54-33 85-3 15-4 44-2 59 5 44 23 87 50 118 23 27 43 43 70 57 23 12 53 21 79 24 11 1 35 1 46 0zm-58-91c-36-4-56-20-63-53-1-5-2-16-2-73 0-50-1-68-2-69-1-2-7-5-9-5-2 0-6-2-6-3 0-1 6-1 32-1 27 0 32 0 32 1 0 1-5 3-9 3-3 0-9 3-11 6-1 2-1 12-1 61 0 58 0 66 3 80 4 17 14 27 33 32 16 4 32 4 49 0 18-4 28-13 33-28 4-12 4-22 4-90 0-36 0-70 1-75 1-16 7-25 19-29 3-1 13-1 28-2 21-1 24 0 24 1 1 2-1 3-10 5-10 1-12 2-14 6-2 3-2 5-2 83 0 51 0 83-1 89-3 32-23 53-53 58-20 4-55 5-77 2z" fill="#f69e2c"/><path d="m796 1180c-48-6-95-25-133-55-24-19-50-50-67-80-10-17-20-45-25-66-5-23-6-30-6-59 0-29 1-36 6-59 22-100 104-179 205-199 18-4 30-5 50-5 21 0 32 1 50 5 118 23 206 125 211 244 2 35-3 66-13 97-4 14-13 33-18 41-5 8-20 31-24 36-2 3-6 7-8 10-5 7-29 30-40 38-38 29-83 47-131 53-15 2-45 2-60 0zm57-39c38-5 75-19 104-41 11-8 29-25 40-38 26-30 42-65 50-106 2-14 3-47 2-61-9-77-55-143-125-177-44-22-98-28-147-16-31 7-58 20-83 39-50 38-82 94-89 156-2 17-1 46 2 62 7 39 23 73 46 100 10 12 30 32 41 39 30 23 67 37 105 42 14 2 40 2 55 0zm-62-91c-30-3-51-17-60-40-6-14-6-14-6-87-1-76 0-70-9-73-6-2-8-3-8-4 0 0 14-1 32-1 18 0 32 0 32 1 0 2-3 3-9 4-4 1-7 2-9 3l-3 2 0 64c0 58 0 64 2 73 5 25 18 36 49 40 10 1 19 1 31-2 22-5 34-16 38-36 2-11 3-51 3-91 0-20 0-45 0-56 1-23 2-27 9-34 7-7 8-7 36-8 14 0 25 0 26 0 1 1 2 3 0 3 0 0-4 1-8 2-9 1-12 2-15 5l-2 2-1 86c-1 93-1 92-6 105-5 13-18 27-30 33-10 4-17 6-31 8-18 2-50 2-63 0z" fill="#f69d2a"/><path d="m797 1180c-49-6-93-24-134-55-14-10-34-31-45-46-29-39-44-74-52-120-3-17-3-51-1-69 5-42 18-80 41-115 64-97 182-141 293-108 91 26 162 102 182 194 8 34 8 74 1 110-6 30-19 62-35 87-23 35-45 58-77 79-44 30-93 44-147 44-10 0-22-1-28-1zm56-39c36-5 68-17 97-36 22-14 48-42 63-64 7-10 16-28 21-40 23-60 19-129-11-186-50-93-157-138-258-110-60 17-111 60-139 115-18 36-25 71-23 112 2 37 14 76 35 109 12 18 38 46 56 59 29 22 65 36 103 41 13 2 42 2 55 0zm-62-91c-21-2-35-8-47-20-11-11-17-24-19-43-1-5-1-36-1-69 0-70 1-65-9-68-6-2-8-3-8-4 0 0 14-1 32-1 18 0 32 0 32 1 0 2-2 3-8 4-7 1-10 3-11 6-1 1-1 26-1 62 0 55 0 61 2 71 3 15 5 20 11 27 6 7 13 10 25 14 8 2 11 2 22 2 33 0 52-11 59-32 4-12 4-20 5-98l1-75 2-5c2-5 9-12 14-14 3-1 8-2 28-2 13 0 25 0 26 0 2 0 2 2 1 3 0 0-4 1-8 2-9 1-12 2-15 5l-2 2-1 86c-1 98 0 93-8 109-4 7-6 10-12 17-13 13-26 18-58 20-17 1-35 1-51 0z" fill="#f69c28"/><path d="m805 1181c-39-4-69-13-101-29-12-7-31-18-42-28-10-8-31-29-37-36-19-25-27-38-36-55-13-27-20-53-24-84-2-18-1-51 1-69 9-56 33-103 72-143 20-20 41-36 65-49 76-40 170-40 246 1 12 7 29 18 40 26 11 9 31 29 40 39 30 37 49 80 57 129 2 15 2 59 0 74-7 46-24 86-50 120-3 4-8 10-10 13-5 7-24 25-35 34-29 24-65 41-102 50-20 5-34 7-59 7-12 0-24 0-26 0zm60-42c43-8 80-26 109-54 14-13 15-14 26-27 14-17 27-39 35-61 22-60 18-127-12-183-29-55-82-96-141-111-52-13-105-8-153 15-66 32-113 94-124 168-5 30-2 67 7 97 12 40 32 71 66 102 30 28 69 47 111 54 17 3 16 3 41 2 20 0 24-1 35-3zm-73-89c-22-2-36-8-48-20-10-10-14-19-18-36-1-4-1-24-2-72-1-76 0-69-9-72-5-2-8-3-8-4 0 0 14-1 32-1 18 0 32 0 32 1 0 2-2 3-7 3-7 1-10 2-12 5-2 2-2 4-2 63 0 64 0 71 5 85 3 9 9 16 17 22 4 2 15 6 22 7 4 1 12 1 19 1 27 0 46-9 54-25 6-14 7-28 7-110 0-68 0-70 4-78 2-4 9-10 13-12 3-1 11-1 29-2 24 0 26 0 25 1 0 1-2 2-9 3-5 1-10 2-11 3-6 3-5 0-5 85 0 44 0 82-1 88-2 19-8 32-20 44-12 12-25 17-48 19-19 2-46 2-60 0z" fill="#f69c27"/><path d="m805 1181c-54-5-103-25-143-57-11-8-31-29-38-38-10-13-27-39-32-49-18-37-27-75-27-117 0-70 26-133 74-183 41-42 90-67 150-77 15-2 60-2 75 0 45 7 81 22 116 47 12 9 23 18 35 31 38 39 62 87 71 142 3 18 4 51 1 69-4 31-11 57-24 84-8 17-17 30-36 55-6 7-27 28-37 36-36 29-79 48-126 55-12 2-49 3-60 2zm56-41c38-7 73-22 101-44 15-12 39-37 50-53 31-46 44-105 34-160-12-71-57-132-123-164-31-15-62-22-97-22-26 0-47 3-71 11-78 26-137 95-149 176-10 63 7 129 46 175 11 13 12 14 26 27 21 20 44 34 74 44 11 4 32 9 43 10 5 1 9 1 11 1 6 1 48 0 56-2zm-68-90c-22-2-37-8-49-20-6-6-8-9-11-15-8-17-9-24-9-97 0-35 0-60-1-62-1-3-5-5-10-6-4-1-6-2-6-4 0 0 14-1 32-1 18 0 32 0 32 1 0 1-2 3-4 3-5 0-12 2-14 5l-3 3 0 61c0 65 0 70 5 84 5 16 18 26 42 30 16 3 39 0 52-7 11-5 19-16 21-29 3-13 3-31 3-97 0-44 0-67 1-70 2-9 7-16 15-20 4-2 6-2 30-2 24 0 26 0 25 1 0 1-2 2-9 3-5 1-10 2-12 3-5 3-5 0-5 84 0 77-1 94-3 104-4 17-17 33-31 40-4 2-10 4-15 5-15 4-56 5-78 3z" fill="#f69b26"/><path d="m806 1181c-20-1-50-8-68-15-47-17-87-47-117-85-8-10-23-33-28-42-9-17-17-39-22-59-8-33-9-72-3-106 13-73 55-137 118-176 27-17 61-30 91-36 32-6 70-6 103 1 78 16 145 68 181 140 18 35 26 70 27 110 1 34-3 62-14 92-8 22-15 37-29 57-20 29-37 49-62 67-46 34-102 53-159 52-8 0-16 0-18 0zm45-40c36-4 74-18 105-40 18-13 46-42 58-60 18-28 30-61 34-95 1-12 1-40 0-52-5-39-20-77-43-108-13-17-36-39-53-51-27-19-61-31-95-36-15-2-46-2-61 0-39 6-76 21-106 44-18 14-37 34-50 54-49 74-49 170-1 244 12 18 37 45 55 59 44 33 99 48 157 42zm-57-91c-7-1-17-2-20-3-24-7-39-22-45-45-3-12-4-24-4-86l0-60-3-3c-1-1-5-3-7-4-5-1-7-2-7-4 0-1 7-1 32-1 20 0 32 0 32 1 0 1-3 3-8 3-6 1-9 3-11 5-1 2-1 11-2 49-1 83 1 101 14 114 5 5 14 10 25 12 12 3 33 3 45 0 24-6 34-16 38-40 1-8 2-21 2-85 1-70 1-77 2-81 2-6 8-12 14-15 5-2 6-2 31-3 23 0 26 0 26 1 0 2-1 2-10 4-4 1-8 2-10 2-6 2-6-2-6 92 0 69-1 87-2 92-5 24-20 42-42 49-8 2-17 4-37 5-16 1-27 1-45-1z" fill="#f69a24"/><path d="m808 1181c-32-3-52-8-77-17-37-14-74-40-98-67-38-43-59-89-67-145-2-14-2-54 0-68 14-95 75-173 163-208 45-18 98-23 148-13 91 18 169 87 198 176 10 30 13 56 13 89-1 30-5 55-15 82-5 13-14 34-19 41-2 2-5 8-8 13-40 62-106 105-178 116-19 3-45 4-60 3zm44-40c39-5 79-21 110-44 9-7 30-28 38-38 26-32 43-70 48-113 2-13 1-43 0-56-4-26-10-46-21-69-23-47-61-84-109-105-84-38-184-20-250 46-62 63-82 156-50 239 12 30 28 54 54 80 13 13 20 19 32 26 33 21 70 33 111 36 7 0 27 0 37-1zm-58-91c-37-3-59-19-66-49-3-13-4-24-4-85l0-59-2-3c-2-2-4-3-7-4-5-1-7-2-7-4 0 0 14-1 32-1 20 0 32 0 32 1 0 1-3 3-8 3-6 1-9 3-11 6-2 2-2 6-2 48 0 49 1 79 3 91 4 20 14 30 35 35 23 6 51 3 66-7 10-7 16-16 18-33 1-7 2-21 2-85l1-76 3-6c3-7 7-11 14-14 4-2 7-2 30-2 23 0 26 0 26 1 0 2-1 2-10 3-10 1-13 3-15 6-2 3-2 5-2 55 0 78-1 123-3 130-7 23-24 40-47 45-15 4-53 5-76 3z" fill="#f69a22"/><path d="m803 1180c-53-5-104-26-145-60-18-15-35-34-50-57-10-16-12-18-17-28-13-26-21-54-25-84-2-14-2-52 0-67 7-48 26-92 56-129 8-10 29-32 40-40 47-38 104-58 165-58 60 0 117 20 165 58 10 8 31 29 40 40 48 60 67 137 53 212-8 42-22 74-49 111-16 22-31 36-52 52-51 38-116 57-180 51zm53-40c37-5 73-19 103-42 10-7 32-29 42-41 26-31 41-69 47-112 2-11 2-42 0-53-13-98-84-174-179-193-118-23-233 51-260 168-4 17-6 31-6 51 0 19 1 29 5 47 5 24 17 53 30 73 13 19 41 49 58 61 35 25 74 38 118 41 8 1 30 0 41-2zm-61-91c-12-1-16-2-24-4-25-8-39-25-44-51-1-7-2-17-2-74l-1-65-2-2c-1-1-5-3-8-4-12-4-9-4 26-4 25 0 32 0 32 1 0 1-3 2-10 4-6 1-10 4-10 9-1 5-1 98 0 114 2 38 11 50 38 57 7 2 10 2 23 2 13 0 16 0 24-2 19-5 28-13 33-27 4-12 5-17 5-98l1-77 3-6c4-7 9-12 15-14 5-1 54-2 54-1 0 2-3 3-11 4-9 1-13 3-15 7-1 2-1 26-1 87 0 79 0 85-2 93-2 11-7 20-14 29-6 7-12 12-21 16-9 4-19 6-40 8-21 2-28 2-48 0z" fill="#f69922"/><path d="m804 1180c-61-5-116-31-160-74-43-42-69-94-78-153-2-18-2-54 0-72 11-71 47-131 104-173 35-26 74-42 120-49 15-2 57-2 72 0 65 10 121 41 162 88 44 51 66 114 64 180-2 48-15 93-41 131-15 24-30 41-45 55-41 37-89 58-142 65-14 2-42 2-55 1zm49-39c39-5 79-21 108-44 15-12 39-36 50-52 18-27 31-60 37-95 2-13 2-45 0-58-7-51-29-95-64-130-34-34-78-56-126-63-15-2-48-2-63 0-71 11-133 54-166 118-25 47-32 105-19 157 7 27 25 65 38 80 2 2 6 6 9 10 8 10 26 27 36 35 33 25 74 41 116 44 11 1 33 0 45-1zm-55-91c-37-2-60-18-69-45-4-13-4-15-5-83 0-53-1-66-2-68-1-3-3-3-11-6-2-1-4-2-5-2 0-1 6-1 32-1 19 0 32 0 32 1 0 1-2 2-9 3-8 2-11 3-12 8-1 4-1 103 0 119 2 21 5 32 12 40 6 6 14 11 26 14 7 2 10 2 24 2 13 0 17 0 23-2 15-4 26-11 31-21 7-13 8-23 8-107 0-74 0-75 5-84 1-2 4-5 6-7 6-5 9-5 35-6 13 0 24 0 25 0 3 1 0 3-9 4-9 1-13 3-15 6-2 2-2 9-2 90-1 97 0 91-7 106-9 19-25 31-47 35-6 1-41 4-49 4-3 0-12-1-19-1z" fill="#f69820"/><path d="m805 1180c-21-2-48-7-69-15-24-9-54-26-74-41-21-17-42-41-59-67-27-42-42-95-40-146 3-87 46-163 119-211 86-57 200-57 286 0 59 39 99 97 113 165 4 19 5 30 5 54 0 37-5 64-18 98-15 39-47 81-80 108-20 16-50 33-73 41-35 13-73 18-111 15zm48-39c38-5 77-20 107-43 16-12 41-39 52-55 28-42 41-94 37-143-3-30-9-54-22-80-22-44-57-79-102-101-21-11-42-17-67-21-15-2-49-2-64 0-25 4-45 10-66 21-68 33-113 96-123 173-2 13-2 45 0 58 5 35 17 67 35 93 14 21 41 48 62 62 15 10 35 20 54 26 18 6 34 9 58 11 6 1 30 0 40-1zm-54-91c-34-2-55-14-66-36-8-16-9-27-9-100 0-63 0-61-5-63-1-1-4-1-7-2-2-1-4-2-4-2 0-1 3-1 31-1 27 0 31 0 31 1 0 1-1 2-4 2-12 2-15 3-16 9-1 5-1 106 0 120 2 22 5 32 13 40 6 6 13 10 25 13 12 3 35 3 47 0 22-6 33-17 37-39 1-8 2-19 2-86l1-77 2-5c2-6 8-12 13-14 5-2 16-3 39-3 15 0 19 1 16 2-1 0-5 1-10 2-9 2-12 3-14 7-1 1-1 26-2 90l-1 88-2 7c-7 24-24 39-47 45-14 3-49 5-70 4z" fill="#f6981e"/><path d="m806 1180c-34-3-72-14-104-31-9-5-31-20-40-27-10-8-26-24-32-30-13-16-18-23-31-43-4-6-13-24-17-34-8-19-13-41-16-62-2-14-2-49 0-63 5-42 19-80 42-114 10-15 17-24 31-38 42-43 93-69 153-78 16-2 54-2 69 0 51 8 96 28 134 60 10 8 28 27 36 37 16 20 33 51 42 75 23 63 20 130-6 192-8 18-18 36-31 53-4 5-8 10-9 12-4 5-19 21-30 30-26 22-53 38-84 49-35 12-71 17-108 14zm51-40c36-5 71-19 100-39 18-13 46-42 58-61 8-12 19-34 23-47 23-67 13-142-26-200-11-16-32-38-48-50-30-23-65-38-104-44-15-2-51-2-67 0-76 12-139 59-170 128-24 52-26 113-8 167 5 13 16 36 23 47 13 20 40 48 59 61 18 13 38 23 59 30 17 6 30 8 56 11 7 1 35 0 45-2zm-59-91c-18-1-25-3-37-9-14-7-26-21-31-37-4-13-4-17-4-84 0-63-1-65-2-67-1-1-4-3-6-3-2-1-5-1-6-2-6-2-1-3 29-3 20 0 31 0 31 1 0 1-3 2-10 4-4 1-6 2-8 3l-2 2 0 56c0 56 0 70 3 84 4 19 14 29 35 35 6 2 10 2 23 2 16 0 20 0 32-4 12-4 22-13 26-24 5-12 5-15 5-97 0-51 1-78 2-80 3-9 9-16 16-18 4-2 8-2 29-2 22-1 24 0 24 1 0 2-1 2-11 3-8 1-11 2-13 5-2 2-2 8-2 90 0 85-1 88-2 94-3 9-4 13-9 20-11 16-27 25-49 28-11 1-37 3-42 3-2 0-11-1-19-1z" fill="#f6971c"/></g></g></g></svg>